<svg xmlns="http://www.w3.org/2000/svg" viewBox="0 0 150 150" class="placeholderProfilePicture">
    <g transform="translate(-27.1189,-24.449242)">
        <linearGradient id="gradient1">
            <stop class="gradientStop1" offset="0%" />
            <stop class="gradientStop2" offset="100%" />
        </linearGradient>
        <path
            style="fill: #ffff; stroke:url(#gradient1);stroke-width:3.5;stroke-linejoin:round;stroke-miterlimit:4;stroke-dasharray:none;stroke-opacity:1"
            d="m 41.063619,137.80454 a 71.628235,71.628235 0 0 1 12.285216,-93.909758 71.628235,71.628235 0 0 1 94.709195,0.370242 71.628235,71.628235 0 0 1 11.55062,94.002936" />
        <path
            style="fill:url(#gradient1);stroke:none;stroke-width:4.16798;stroke-linejoin:round;stroke-miterlimit:4;stroke-dasharray:none"
            d="m 82.736265,61.590224 a 23.870918,23.870918 0 0 1 33.610435,-2.42957 23.870918,23.870918 0 0 1 2.54981,33.601524 23.870918,23.870918 0 0 1 -33.592189,2.670017 23.870918,23.870918 0 0 1 -2.79019,-33.582418 z" />
        <path
            style="fill:url(#gradient1);stroke:none;stroke-width:3.49999;stroke-linejoin:round;stroke-miterlimit:4;stroke-dasharray:none"
            d="m 100.31635,119.65375 c -20.803149,-0.0254 -40.597395,8.8623 -54.314506,24.36957 l -0.331232,-0.002 a 71.628235,71.628235 0 0 0 0.161739,0.19275 c -0.03085,0.0351 -0.06223,0.0697 -0.093,0.10491 l 0.182404,5.1e-4 a 71.628235,71.628235 0 0 0 54.336205,25.31267 71.628235,71.628235 0 0 0 54.54914,-24.8512 l 0.31004,0.002 c -0.0518,-0.0603 -0.10454,-0.11972 -0.15658,-0.17983 a 71.628235,71.628235 0 0 0 0.10025,-0.11731 l -0.20307,-10e-4 c -13.63305,-15.68056 -33.44269,-24.74194 -54.32226,-24.83052 -0.073,-2.7e-4 -0.14608,-5.2e-4 -0.21913,-5.2e-4 z" />
    </g>
</svg>