<svg
   xmlns:dc="http://purl.org/dc/elements/1.1/"
   xmlns:cc="http://creativecommons.org/ns#"
   xmlns:rdf="http://www.w3.org/1999/02/22-rdf-syntax-ns#"
   xmlns:svg="http://www.w3.org/2000/svg"
   xmlns="http://www.w3.org/2000/svg"
   xmlns:sodipodi="http://sodipodi.sourceforge.net/DTD/sodipodi-0.dtd"
   xmlns:inkscape="http://www.inkscape.org/namespaces/inkscape"
   width="124.03802mm"
   height="129.21001mm"
   viewBox="0 0 124.03802 129.21001"
   version="1.1"
   id="svg8"
   inkscape:version="1.0.1 (3bc2e813f5, 2020-09-07)"
   sodipodi:docname="logo_tiere.svg">
  <defs
     id="defs2">
    <clipPath
       clipPathUnits="userSpaceOnUse"
       id="clipPath849">
      <path
         d="M 0,593.778 H 440.889 V 0 H 0 Z"
         id="path847" />
    </clipPath>
  </defs>
  <sodipodi:namedview
     id="base"
     pagecolor="#ffffff"
     bordercolor="#666666"
     borderopacity="1.0"
     inkscape:pageopacity="0.0"
     inkscape:pageshadow="2"
     inkscape:zoom="1.979899"
     inkscape:cx="290.23641"
     inkscape:cy="418.58356"
     inkscape:document-units="mm"
     inkscape:current-layer="layer1"
     inkscape:document-rotation="0"
     showgrid="false"
     fit-margin-top="0"
     fit-margin-left="0"
     fit-margin-right="0"
     fit-margin-bottom="0"
     inkscape:window-width="1920"
     inkscape:window-height="992"
     inkscape:window-x="-8"
     inkscape:window-y="-8"
     inkscape:window-maximized="1" />
  <metadata
     id="metadata5">
    <rdf:RDF>
      <cc:Work
         rdf:about="">
        <dc:format>image/svg+xml</dc:format>
        <dc:type
           rdf:resource="http://purl.org/dc/dcmitype/StillImage" />
        <dc:title></dc:title>
      </cc:Work>
    </rdf:RDF>
  </metadata>
  <g
     inkscape:label="Ebene 1"
     inkscape:groupmode="layer"
     id="layer1"
     transform="translate(-68.004804,-50.299759)">
    <path
       d="m 170.01037,129.91606 c -0.0318,-0.0653 -0.11607,-0.09 -0.18838,-0.055 -0.073,0.0349 -0.1069,0.11641 -0.0755,0.18132 0.0314,0.0656 0.11571,0.0896 0.18874,0.055 0.0727,-0.0353 0.10654,-0.11607 0.0751,-0.18133 m -0.41204,0.68016 c 0,0 -0.17922,-0.0893 -0.27447,-0.27482 0,0 -0.03,-0.0416 0.0177,-0.0952 0.048,-0.0536 -0.006,-0.14922 -0.16122,-0.13123 0,0 -0.25047,0.13123 0,0.37606 0.25083,0.24483 0.31644,0.26246 0.31644,0.26246 0,0 0.0716,0.0423 0.15522,-0.012 0.084,-0.0536 -0.0536,-0.12524 -0.0536,-0.12524 m 0.91017,1.11937 c -0.12312,0.0903 -0.17851,-0.0681 -0.26282,-0.11889 -0.58879,-0.3556 -1.0982,-0.84067 -1.75965,-1.07915 -0.29528,-0.10618 -0.33268,-0.28998 -0.13512,-0.52916 0.3302,-0.40041 0.78423,-0.50307 1.19168,-0.52952 0.65264,0.0166 0.96697,0.36865 0.88371,0.97296 -0.0476,0.34431 -0.0854,0.66498 0.0974,0.98143 0.0519,0.0893 0.0833,0.23001 -0.0152,0.30233 m 0.56621,-9.20786 c -0.018,0.0804 -0.003,0.17463 0.10936,0.17463 0.096,-2.7e-4 0.13229,-0.0847 0.15592,-0.16334 0.17322,-0.57115 0.30727,-1.15041 0.26,-1.75295 -0.0254,-0.33373 -0.0695,-0.66816 -0.38311,-1.01353 -0.0727,0.98248 0.0554,1.87854 -0.14217,2.75519 m -0.25189,-2.8896 c -0.85231,0.50377 -1.69686,1.022 -2.55728,1.51201 -0.74366,0.42368 -1.01918,0.2734 -1.12572,-0.56692 -0.0176,-0.13546 0.0194,-0.29986 -0.18062,-0.40393 -0.0582,0.28787 -0.0938,0.54469 -0.0589,0.8128 0.10265,0.79375 0.19155,1.58962 0.30127,2.38231 0.0272,0.1965 -0.0247,0.53834 0.25118,0.51506 0.2861,-0.0236 0.19544,-0.36442 0.14887,-0.54399 -0.11113,-0.42827 0.0882,-0.6865 0.37535,-0.94721 0.94368,-0.8583 1.89372,-1.70674 2.89948,-2.49202 0.11995,-0.0935 0.28999,-0.16087 0.27835,-0.36442 -0.1457,-0.0716 -0.23354,0.0381 -0.33197,0.0963 m 1.49966,15.01881 c 0.17992,0.35736 0.17604,0.75741 -0.0921,1.03152 -0.56974,0.58279 -1.18498,1.12924 -2.10185,1.05163 -0.40464,-0.0342 -0.8121,-0.0628 -1.21815,-0.0568 -0.66075,0.009 -1.30845,0.0878 -1.77517,0.63994 -0.18451,0.21802 -0.11889,0.381 0.16157,0.40887 0.11783,0.0116 0.24483,-0.0102 0.36018,-0.0423 0.49848,-0.13723 1.00542,-0.23495 1.51907,-0.28046 1.22802,-0.10971 2.33715,-0.49424 3.2071,-1.40159 0.43392,-0.45296 0.71473,-1.0167 0.96696,-1.58714 0.11924,-0.27094 0.0349,-0.45332 -0.29668,-0.44944 -0.0949,7.9e-4 -0.1898,0 -0.28505,0 -0.78916,-0.0208 -0.79551,-0.006 -0.44591,0.6858 m -8.22043,-10.31205 c 0,-0.21696 0.007,-0.43356 -0.002,-0.64982 -0.007,-0.15663 0.0406,-0.37323 -0.139,-0.43109 -0.20778,-0.067 -0.23565,0.17145 -0.32173,0.29633 -0.0603,0.0889 -0.121,0.18168 -0.16157,0.28117 -0.39159,0.97402 -0.51435,1.94416 0.14534,2.85679 0.53975,0.74683 1.53317,1.01424 2.21827,0.62724 0.17815,-0.10089 0.38911,-0.22119 0.34572,-0.45155 -0.0497,-0.26741 -0.30762,-0.15558 -0.47731,-0.16087 -0.87207,-0.0254 -1.4164,-0.49107 -1.53882,-1.35643 -0.0469,-0.33444 -0.0589,-0.67381 -0.0871,-1.01071 0.006,-2.6e-4 0.0123,-0.001 0.0183,-0.001 m 9.12319,8.56403 c -0.57785,-1.07491 -0.70873,-2.25566 -0.69462,-3.43535 0.0222,-2.02494 -0.88864,-3.55741 -2.34315,-4.8461 -0.23707,-0.20991 -0.50588,-0.36231 -0.81809,-0.4318 -0.0945,-0.0215 -0.19614,-0.0504 -0.26317,0.0395 -0.0882,0.11853 0.0102,0.19932 0.0818,0.27975 0.28893,0.32279 0.58209,0.64206 0.86854,0.96802 1.01706,1.15958 1.76107,2.41759 1.71874,4.04848 -0.0229,0.86184 0.0769,1.73179 0.45331,2.54318 0.19191,0.41275 0.45932,0.76517 0.74684,1.10807 0.061,0.0727 0.13934,0.14111 0.24623,0.091 0.0706,-0.0332 0.0808,-0.10125 0.0649,-0.20461 -0.0127,-0.0342 -0.0293,-0.1009 -0.0614,-0.16017 m -17.0247,9.41282 c 0.16686,0.95215 0.39194,1.89689 0.77717,2.77848 0.72425,1.65594 1.10208,3.40607 1.47108,5.15549 0.30798,1.45803 0.5394,2.93406 0.68651,4.41996 0.01,0.10371 -0.0116,0.2607 0.11853,0.27058 0.13758,0.0102 0.12171,-0.14782 0.14535,-0.24942 0.16016,-0.68015 0.20108,-1.36913 0.12946,-2.06234 -0.0949,-0.91757 -0.1845,-1.8355 -0.31256,-2.74884 -0.20355,-1.45345 -0.49248,-2.88466 -1.07456,-4.2485 -0.53763,-1.26154 -1.36031,-2.38161 -1.80481,-3.68759 -0.0109,-0.0318 -0.0561,-0.0522 -0.10901,-0.0988 -0.1143,0.18133 -0.0515,0.33126 -0.0272,0.47096 m 2.19251,12.57194 c -0.7814,-0.21696 -1.53705,-0.0222 -2.28529,0.16757 -1.67922,0.42686 -3.08116,1.282 -3.81423,2.90513 -1.29576,2.86632 -0.98426,5.62574 0.7567,8.23136 0.0896,0.13406 0.17322,0.30621 0.38206,0.31045 0.0656,-0.17145 -0.0494,-0.27729 -0.0956,-0.39723 -0.61101,-1.5808 -1.03117,-3.19229 -0.9652,-4.91349 0.11359,-2.95663 2.09056,-5.33647 4.98757,-5.93937 0.40852,-0.0847 0.82233,-0.14111 1.25624,-0.21413 -0.0571,-0.13865 -0.14711,-0.12983 -0.22225,-0.15029 m 3.73028,-0.35913 c 0.0402,-0.54821 0.33302,-0.97155 0.68474,-1.3529 0.66816,-0.72425 1.42698,-1.3215 2.36643,-1.67569 1.03928,-0.39194 2.08174,-0.78176 3.06846,-1.29858 0.97332,-0.50976 1.69545,-1.25377 2.05952,-2.30858 0.22225,-0.64311 0.27375,-1.29857 0.0635,-1.9565 -0.0395,-0.12347 -0.0857,-0.28998 -0.25435,-0.27446 -0.18874,0.0173 -0.14853,0.19861 -0.15946,0.3242 -0.0332,0.36513 -0.06,0.73307 -0.18768,1.07774 -0.37077,0.99977 -1.13876,1.63547 -2.032,2.12795 -1.02482,0.56515 -2.165,0.85761 -3.24309,1.29858 -0.97507,0.39934 -1.68874,1.05057 -2.14277,2.00201 -0.35136,0.73731 -0.48013,1.50425 -0.4191,2.37173 0.18697,-0.11466 0.18874,-0.23601 0.1958,-0.3355 m -4.2164,-5.50721 c -0.26459,-1.05339 -0.58526,-2.0895 -1.05234,-3.0734 -0.56445,-1.18815 -1.20685,-2.33997 -1.69827,-3.562 -0.89606,-2.2292 -1.09714,-4.52155 -0.54646,-6.86293 0.15487,-0.65829 0.41205,-1.29258 0.59655,-1.94487 0.13159,-0.46602 0.30692,-0.93204 0.22013,-1.43333 -0.0152,-0.0885 -0.0116,-0.2152 -0.13934,-0.21379 -0.11889,0.001 -0.13053,0.12136 -0.14958,0.21132 -0.20673,0.96237 -0.61348,1.85278 -0.99201,2.75237 -0.61489,1.46508 -1.01036,2.98661 -1.028,4.57482 -0.0162,1.45203 0.44098,2.81058 1.10279,4.08834 0.81844,1.58186 1.94169,2.9711 2.89771,4.46687 0.28963,0.45368 0.50342,0.94192 0.75953,1.49649 0.0917,-0.23636 0.0617,-0.37042 0.0293,-0.49989 m -3.79307,-19.19464 c 0.30057,-0.33549 0.6865,-0.52387 1.10137,-0.66745 0.11254,-0.0392 0.25788,-0.12418 0.3369,-0.002 0.10125,0.15628 -0.0744,0.23424 -0.16721,0.31891 -0.51047,0.46496 -1.01283,0.93698 -1.48908,1.43933 -1.28905,1.3589 -1.30245,2.96757 -0.94826,4.65032 0.0413,0.19367 0.0981,0.55033 0.28433,0.52282 0.24307,-0.0356 0.0833,-0.36584 0.12665,-0.56339 0.012,-0.0519 0.002,-0.10795 0.005,-0.16263 0.0815,-1.6951 0.60325,-3.20781 1.79775,-4.45947 0.49566,-0.51964 0.98002,-1.05798 1.35291,-1.67569 0.33302,-0.55104 0.67415,-1.07915 1.26929,-1.38712 0.0914,-0.0473 0.15593,-0.14782 0.23142,-0.22507 0.67557,-0.69603 1.37831,-1.36913 1.86126,-2.2479 0.0494,0.49 0.17427,0.94368 0.30621,1.39488 0.11395,0.38911 0.35242,0.69885 0.6477,0.96802 0.0684,0.0628 0.16016,0.14887 0.248,0.078 0.10795,-0.0875 -0.009,-0.16722 -0.0561,-0.24025 -0.14816,-0.22719 -0.31009,-0.44309 -0.33761,-0.72919 -0.10689,-1.1109 0.01,-2.14524 0.77117,-3.05576 0.889,-1.06362 2.0246,-1.83974 3.03813,-2.75766 0.15205,-0.13759 0.49636,-0.25647 0.38876,-0.44098 -0.11924,-0.20496 -0.44203,-0.0536 -0.67522,-7.9e-4 -0.62971,0.14323 -1.11583,0.54681 -1.62137,0.90841 -1.05304,0.75317 -1.95191,1.65911 -2.47367,2.85785 -0.2981,0.68545 -0.72884,1.23684 -1.29434,1.68945 -0.98814,0.78987 -2.03377,1.48978 -3.21557,1.97097 -0.46638,0.18944 -0.89782,0.45191 -1.24637,0.8262 -0.3242,0.34925 -0.55456,0.74648 -0.6477,1.26789 0.22543,-0.0416 0.31221,-0.1718 0.40605,-0.27729 m 23.44208,6.35706 c 0.98425,0.62618 1.99285,1.21214 2.93229,1.90959 0.94509,0.70132 1.86337,1.42628 2.56117,2.39218 -0.127,-0.0522 -0.23107,-0.13264 -0.34361,-0.20002 -0.35948,-0.21626 -0.70802,-0.45579 -1.11724,-0.57573 -0.13794,-0.0406 -0.27835,-0.0501 -0.36478,0.0882 -0.0896,0.14182 0.043,0.22119 0.11748,0.31044 0.2166,0.26106 0.44026,0.51577 0.65581,0.77894 0.93275,1.14018 1.40018,2.48003 1.76742,3.89078 0.75318,2.89348 0.85302,5.78591 0.21131,8.7055 -0.22719,1.03328 -0.59795,2.03341 -0.72037,3.09068 -0.018,0.15346 -0.10548,0.37465 0.0815,0.43639 0.20567,0.0674 0.27975,-0.15451 0.36125,-0.31009 0.38699,-0.74683 0.77999,-1.49155 1.16487,-2.24014 0.34819,-0.67874 0.62759,-1.37971 0.76376,-2.13889 0.31115,-1.73849 0.2727,-3.48051 0.13865,-5.23275 -0.097,-1.26612 -0.24236,-2.50755 -0.72003,-3.69782 -0.15557,-0.38841 -0.41557,-0.74224 -0.46813,-1.16522 -0.13512,-1.08621 -0.65934,-1.96251 -1.38818,-2.7492 -1.0534,-1.137 -2.32057,-1.99849 -3.59269,-2.85609 -0.13476,-0.0914 -0.30268,-0.14781 -0.4318,-0.36936 0.28575,0 0.50094,0.004 0.71649,-0.002 0.0787,-0.002 0.18168,-0.01 0.19438,-0.1076 0.013,-0.0931 -0.0769,-0.13476 -0.15381,-0.16368 -0.41945,-0.15699 -0.83679,-0.31821 -1.28093,-0.39829 -0.93487,-0.16969 -1.86267,-0.36301 -2.77813,-0.62442 -0.46285,-0.13229 -0.92287,-0.27763 -1.41217,-0.3556 0.86395,0.87101 2.11843,0.95568 3.1055,1.58397 m 8.39506,24.64365 c 0.16333,0.14287 0.3436,0.26599 0.51223,0.40216 1.57444,1.26789 2.52307,2.86703 2.69275,4.91737 0.13653,1.657 -0.52776,2.99473 -1.57938,4.17442 -1.05657,1.18498 -2.36009,2.0694 -3.71828,2.87338 -0.097,0.0572 -0.27341,0.079 -0.21308,0.2413 0.0522,0.14217 0.21167,0.11148 0.32315,0.0776 0.44132,-0.1337 0.88406,-0.26529 1.3155,-0.42616 2.15583,-0.80151 4.08023,-1.91946 5.26239,-3.99803 0.49565,-0.87206 0.80539,-1.80304 0.70238,-2.83421 -0.0892,-0.895 -0.2921,-1.75437 -0.73307,-2.55658 0.0991,0.0451 0.16968,0.10301 0.23318,0.16862 0.43921,0.45438 0.77259,0.97579 0.9906,1.57057 0.0346,0.0953 0.0303,0.25682 0.1711,0.23777 0.15769,-0.0212 0.12277,-0.18309 0.13053,-0.29986 0.003,-0.0406 7.9e-4,-0.0818 -0.003,-0.12241 -0.16827,-1.8475 -0.99977,-3.24133 -2.7492,-3.9998 -0.58137,-0.25188 -1.16875,-0.49071 -1.7533,-0.73519 0.58103,-0.11994 1.13912,-0.28081 1.63971,-0.56832 0.56762,-0.32632 1.08903,-0.72178 1.20615,-1.44039 0.0152,-0.0928 0.0674,-0.19826 -0.0314,-0.26106 -0.10019,-0.0628 -0.17568,0.0272 -0.24765,0.0861 -0.33549,0.27552 -0.6604,0.57079 -1.08126,0.71155 -1.28623,0.43004 -2.58481,0.4953 -3.87209,0.0349 -0.74083,-0.26459 -1.49931,-0.55034 -1.71168,-1.45733 -0.0293,-0.12453 -0.0222,-0.30797 -0.21555,-0.28504 -0.17921,0.0208 -0.23106,0.18909 -0.22754,0.34043 0.0162,0.68545 0.16934,1.3268 0.73731,1.77694 0.64205,0.50906 1.39664,0.76659 2.30611,0.91934 -0.32315,0.16863 -0.23813,0.31926 -0.0864,0.45191 m -32.27353,2.52236 c 0.0755,1.06856 0.11677,2.1523 0.52564,3.15877 0.73343,1.80517 1.62701,3.5179 2.97215,4.96288 0.51118,0.54857 1.0788,1.02905 1.64501,1.51447 1.86231,1.59632 3.93523,2.78695 6.36023,3.28648 1.3014,0.26811 2.60738,0.54822 3.94017,0.57291 1.73743,0.0314 3.46569,-0.10654 5.17737,-0.43674 2.15618,-0.41592 4.22804,-1.07103 6.19407,-2.05669 1.27812,-0.64029 2.49873,-1.36807 3.6188,-2.25813 0.33514,-0.26635 0.38911,-0.33161 0.47519,-0.63324 -1.36631,0.91723 -2.81199,1.58856 -4.32753,2.12478 -2.30011,0.81527 -4.65596,1.37372 -7.08483,1.60161 -1.92335,0.18098 -3.85234,0.1711 -5.7658,-0.0963 -1.81681,-0.25436 -3.60116,-0.65159 -5.24934,-1.524 -1.32644,-0.70168 -2.54423,-1.53776 -3.677,-2.52907 -1.91276,-1.67393 -3.22192,-3.71369 -3.98956,-6.12387 -0.35172,-1.10278 -0.54998,-2.23802 -0.77012,-3.38243 -0.1016,0.60184 -0.0875,1.21285 -0.0444,1.81857 m 10.1339,0.9077 c -0.054,-0.002 -0.10936,-0.004 -0.16122,-0.0173 -1.63371,-0.40887 -3.17994,-0.95991 -4.41184,-2.20769 -1.03117,-1.04387 -1.68063,-2.22638 -1.68981,-3.70663 -0.004,-0.56268 -0.0116,-1.16593 0.53094,-1.54905 0.90028,-0.63676 1.9625,-0.47872 2.25918,0.48578 0.0233,0.0751 0.0628,0.16404 0.15911,0.1591 0.0928,-0.005 0.11994,-0.0988 0.15875,-0.16898 0.36688,-0.6664 -0.0727,-1.59738 -0.85373,-1.68487 -1.53705,-0.17215 -3.01131,0.49107 -3.61491,2.03729 -0.55704,1.42769 -0.26599,2.78765 0.58526,4.01885 0.768,1.11089 1.84855,1.85878 3.0667,2.40771 2.38477,1.07526 4.90466,1.55116 7.50323,1.63583 1.80446,0.0586 3.60821,0.0236 5.40596,-0.16122 1.23261,-0.12771 2.43664,-0.38665 3.59587,-0.83468 0.11994,-0.0462 0.29386,-0.0942 0.24024,-0.26952 -0.0469,-0.15451 -0.20285,-0.0868 -0.31997,-0.0769 -0.48578,0.042 -0.97367,0.0695 -1.45768,0.12806 -2.89242,0.34995 -5.78732,0.34043 -8.68997,0.15698 -0.73308,-0.0466 -1.19733,-0.36301 -1.59914,-0.92604 -0.91688,-1.28588 -1.24813,-2.75167 -1.37302,-4.28343 -0.0684,-0.84314 -10e-4,-1.68134 0.20779,-2.50507 0.0215,-0.0861 0.0755,-0.19897 -0.0469,-0.24659 -0.0896,-0.0342 -0.14358,0.0589 -0.19191,0.12029 -0.0751,0.0963 -0.14358,0.19791 -0.2099,0.30057 -0.1771,0.27446 -0.32068,0.56727 -0.42722,0.87595 -0.10583,0.3048 -0.1965,0.61524 -0.29386,0.92286 0.15381,-2.30399 0.96837,-4.32047 2.59291,-5.98593 0.12207,-0.12559 0.40993,-0.26176 0.28364,-0.42792 -0.14041,-0.1838 -0.42898,-0.0713 -0.63782,0.0251 -0.13371,0.0614 -0.26035,0.14992 -0.37042,0.24835 -0.42475,0.3803 -0.86925,0.75389 -1.18357,1.22872 -1.16311,1.76001 -1.57163,3.69112 -1.27282,5.78344 0.14464,1.01177 0.80927,1.79211 1.14406,2.72133 0.23742,0.6597 0.7179,1.20156 1.21743,1.75789 -0.0938,0.0254 -0.11924,0.0385 -0.14534,0.0378 M 130.5871,118.41615 c 0.0462,0.1591 0.25223,0.23812 0.46037,0.17709 0.20779,-0.061 0.33902,-0.23883 0.29245,-0.39793 -0.0469,-0.15875 -0.25294,-0.23777 -0.46107,-0.1771 -0.20779,0.061 -0.33832,0.23884 -0.29175,0.39794 m -1.26683,0.29598 c -0.0406,-0.13371 0.22578,-0.40428 0.29069,-0.4946 0.82197,-1.13241 1.25836,-1.21179 2.45569,-0.43921 0.31538,0.20356 0.61842,0.42545 1.01988,0.89783 -0.89429,-0.16546 -0.76871,0.0395 -1.0347,0.25188 -0.85725,0.68544 -1.20756,0.61242 -1.96568,-0.22613 -0.0787,-0.0868 0.0402,-0.44344 -0.76588,0.0102 m -6.9596,-2.69628 c 0.0572,-0.0353 0.11465,-0.0709 0.17639,-0.0988 0.0864,-0.0381 0.18027,-0.0536 0.26952,-0.0833 0.0889,-0.0289 0.17251,-0.0709 0.25647,-0.11006 0.12418,-0.0582 0.25012,-0.11325 0.38382,-0.139 0.20391,-0.1965 0.28999,-0.45967 0.37818,-0.72108 0.41593,-1.23119 1.24425,-2.00695 2.49979,-2.37737 1.39029,-0.41027 2.80776,-0.58137 4.24709,-0.62582 1.22237,-0.0378 2.39077,0.21061 3.49673,0.72954 0.39758,0.18627 0.78423,0.4004 1.15746,0.63147 0.42299,0.26141 0.78035,0.30339 1.18005,-0.0787 0.36018,-0.34431 0.83255,-0.53975 1.29187,-0.73977 0.16369,-0.0716 0.41945,-0.0617 0.41981,-0.38171 -0.93945,-0.0864 -1.87749,-0.12276 -2.79859,-0.2674 -2.08915,-0.32738 -4.16807,-0.58808 -6.29567,-0.32985 -1.17052,0.14182 -2.32022,0.3108 -3.43677,0.6918 -0.71507,0.24377 -1.30986,0.635 -1.74131,1.27211 -0.62794,0.92605 -1.36983,1.76495 -1.90888,2.76261 0.14041,-0.0466 0.28258,-0.0903 0.42404,-0.13476 m -1.80269,5.05177 c -0.0564,0.0173 -0.11218,0.0374 -0.16863,0.0561 -0.0134,0.004 -0.0275,0.006 -0.0413,0.01 -0.0466,0.0339 -0.0917,0.0688 -0.14393,0.1009 -0.57045,0.35277 -0.52035,0.81209 -0.03,1.32397 0.32455,0.33796 0.65228,0.67416 0.98777,1.00118 0.48825,0.47731 0.78247,0.48648 1.25907,-0.0219 0.34501,-0.3683 0.68862,-0.70238 1.17792,-0.88547 0.38171,-0.14217 0.62336,-0.46038 0.60854,-0.88477 -0.0159,-0.45896 -0.37112,-0.6484 -0.75176,-0.75 -0.14958,-0.0399 -0.30198,-0.0709 -0.45333,-0.10407 h -7.9e-4 c -0.55598,-0.002 -1.11055,-0.0988 -1.65982,0.0226 -0.084,0.0183 -0.16933,0.0268 -0.254,0.0427 -0.007,0.002 -0.013,0.009 -0.0212,0.009 -0.0127,0 -0.0261,8e-4 -0.0388,0.001 -0.15558,0.0279 -0.31009,0.0607 -0.46708,0.0794 h -0.003 m 2.77918,-2.62326 c 0.0533,-0.13264 -0.0247,-0.28928 -0.17462,-0.3496 -0.14958,-0.06 -0.31468,-0.002 -0.3676,0.13123 -0.0533,0.13229 0.0243,0.28857 0.17392,0.34925 0.15029,0.06 0.31503,10e-4 0.3683,-0.13088 m -0.77646,1.29117 c 0.24377,-0.16757 0.46567,-0.35666 0.64241,-0.51964 -0.67557,-0.16122 -0.81774,-0.35631 -0.98672,-0.64065 -0.31433,-0.52846 -0.28822,-0.73025 0.22613,-1.05374 0.30691,-0.19298 1.06715,-0.0624 1.4157,-0.10937 0.0903,-0.0123 0.0201,-0.22154 -0.0303,-0.35277 -0.0462,-0.12101 -0.1143,-0.25259 -0.2219,-0.31221 -0.0984,-0.0557 -0.3175,-0.0716 -0.42792,-0.0804 -0.45579,-0.0353 -0.87877,0.16052 -1.18357,0.47273 -0.005,0.002 -0.01,-0.001 -0.0134,0.002 -0.26035,0.19015 -0.41628,0.44838 -0.52458,0.74789 -0.0155,0.0416 -0.0275,0.0843 -0.0416,0.127 -0.0324,0.25047 0.0325,0.4318 0.0325,0.4318 0.0307,0.0797 0.0642,0.15769 0.0963,0.23707 0.0349,0.0861 0.0603,0.17568 0.0931,0.26281 0.0325,0.0871 0.0702,0.17004 0.13335,0.23919 0.0134,0.0145 0.0296,0.0261 0.0452,0.0392 0.0346,0.10795 0.054,0.22013 0.0617,0.33549 -0.008,0.0487 -0.0155,0.0974 -0.018,0.1464 -0.0564,0.0914 -0.097,0.1905 -0.14675,0.2854 -0.0519,0.0991 -0.1203,0.18133 -0.21661,0.24024 -0.14499,0.0885 -0.31538,0.1203 -0.48436,0.13229 0.20955,-0.43215 0.248,-0.91616 0.22577,-1.41393 -0.0222,-0.1651 -0.0106,-0.6731 -0.01,-0.70873 -0.002,-0.0427 0,-0.0857 -0.001,-0.12559 -0.002,-0.10478 -0.002,-0.20955 0.001,-0.31433 0.0434,-0.21307 0.11536,-0.41275 0.20285,-0.6096 0.0628,-0.0917 0.12312,-0.1845 0.17463,-0.28257 0.14569,-0.10901 0.25435,-0.2667 0.39264,-0.38488 0.19826,-0.17039 0.42933,-0.29951 0.66534,-0.40958 0.34466,-0.0938 0.70696,-0.0974 1.06398,-0.091 0.41486,0.22754 0.39334,0.4265 0.47766,1.19662 0.17744,1.62348 -0.51965,2.6349 -1.9558,3.24485 -0.0265,0.0113 -0.0504,0.0282 -0.0748,0.0437 -0.26847,0.0709 -0.53834,0.1397 -0.81069,0.19615 -0.002,0 -0.003,-0.001 -0.005,-7.9e-4 -0.0586,0.01 -0.11606,0.0233 -0.17392,0.0353 -0.0155,0.003 -0.031,0.006 -0.0462,0.009 -0.009,10e-4 -0.0183,0.003 -0.0279,0.005 -0.0198,0.003 -0.0406,0.005 -0.0603,0.008 -0.0342,0.003 -0.0684,0.005 -0.10301,0.003 -0.008,-2.6e-4 -0.0166,-7.9e-4 -0.0247,-10e-4 h -0.004 c -0.001,-2.6e-4 -0.001,-2.6e-4 -0.004,-0.001 -0.018,-0.005 -0.0353,-0.009 -0.0526,-0.0145 -0.002,-0.001 -0.002,-7.9e-4 -0.003,-0.001 -0.001,-7.9e-4 -7.9e-4,-7.9e-4 -0.003,-0.002 -0.007,-0.004 -0.0134,-0.007 -0.0201,-0.0109 -0.009,-0.006 -0.013,-0.0113 -0.0176,-0.0169 0.003,-0.005 0.009,-0.0109 0.0102,-0.0124 0.006,-0.006 0.0124,-0.0106 0.0183,-0.0152 0.0265,-0.012 0.0536,-0.0233 0.078,-0.0388 0.005,-0.003 0.006,-0.01 0.0102,-0.0134 0.27658,-0.0635 0.54892,-0.1517 0.79199,-0.29951 0.15945,-0.0967 0.3115,-0.20179 0.47589,-0.29034 0.13547,-0.0734 0.27376,-0.14534 0.35384,-0.28292 0.006,-0.0113 0.002,-0.0201 0.004,-0.0307 m 8.50336,-4.01426 c -0.79834,-0.30198 -1.68875,0.0942 -2.03271,0.88123 -0.0628,0.14394 -0.084,0.29034 0.0226,0.41099 0.12982,0.14746 0.30586,0.17639 0.47484,0.0716 0.12277,-0.0758 0.22789,-0.18132 0.3369,-0.27834 0.60431,-0.53904 1.27635,-0.65757 2.03765,-0.36759 0.20214,0.0769 0.0374,0.0557 1.76036,0.7814 -0.54258,-0.36689 -2.05917,-1.29504 -2.59962,-1.4993 m 13.50363,29.24704 c 0.12347,-0.0124 0.1778,-0.15134 0.18238,-0.27023 0.0325,-0.79939 0.34008,-1.51659 0.81633,-2.33468 -0.56868,0.1845 -0.79904,0.49424 -0.95779,0.8195 -0.29916,0.61454 -0.72178,1.11901 -1.16664,1.62983 -0.57926,0.66358 -0.82127,1.47391 -0.80821,2.47333 0.28681,-0.24236 0.29704,-0.45967 0.38241,-0.63959 0.34361,-0.71861 0.53516,-1.5755 1.55152,-1.67816 m -8.49771,-0.81351 c -1.14195,-0.49671 -2.33998,-0.58702 -3.56341,-0.24518 0.65052,0.19932 1.32397,0.20602 1.96321,0.41205 0.6484,0.20919 1.22766,0.51646 1.76388,0.94862 0.51083,0.41134 0.77435,1.06362 1.34268,1.41005 0.15381,-0.17004 0.13652,-0.32032 0.15486,-0.46355 0.0885,-0.70697 0.15099,-0.74613 0.82339,-0.54399 0.80927,0.24342 1.47461,0.69533 2.00484,1.35573 0.14957,0.18627 0.24024,0.45085 0.6357,0.57009 -0.32773,-0.87595 -0.7119,-1.58292 -1.31128,-2.15053 -0.54468,-0.51576 -1.1945,-0.87736 -1.96073,-0.86466 -0.66569,0.0113 -1.25166,-0.16687 -1.85314,-0.42863 M 118.16964,122.3028 c 0.12417,0.37641 0.25294,0.7687 0.61454,1.12501 0.0959,-0.35419 -0.0311,-0.59761 -0.0801,-0.84138 -0.21802,-1.09149 -0.46073,-2.17769 -0.66675,-3.27131 -0.16087,-0.85654 -0.0381,-1.5748 0.77822,-2.14736 0.88407,-0.62053 1.61679,-1.43651 2.27154,-2.30998 0.39723,-0.52917 0.83044,-0.98496 1.61149,-0.80504 0.29739,0.0688 0.94192,-0.56974 0.96202,-0.87419 0.0127,-0.19085 -0.13299,-0.24059 -0.27516,-0.28186 -1.05057,-0.30445 -1.98931,0.0187 -2.58763,0.96272 -0.60254,0.95286 -1.32432,1.78541 -2.20838,2.48003 -0.34573,0.27129 -0.70415,0.52635 -1.04282,0.80575 -0.52528,0.43286 -0.71896,0.96308 -0.49494,1.64112 0.38523,1.16805 0.73272,2.34844 1.11795,3.51649 m 1.10455,1.016 c -0.1203,1.02341 -0.13759,2.05211 0.0399,3.06599 0.13899,0.7934 0.46073,1.51906 1.15429,2.00801 0.50553,0.35666 0.74295,0.26635 0.82655,-0.33267 0.0561,-0.40463 0.0395,-0.82091 0.10654,-1.22343 0.0473,-0.2861 0.15805,-0.5902 0.49989,-0.65687 0.31432,-0.0607 0.47131,0.18979 0.62477,0.40181 0.40851,0.56515 0.94862,0.9518 1.59455,1.19592 1.58997,0.60007 3.21663,0.55739 4.85352,0.25294 0.25435,-0.0473 0.59831,-0.12065 0.54963,-0.44662 -0.055,-0.375 -0.42051,-0.34008 -0.71296,-0.30938 -0.2025,0.0215 -0.40147,0.0801 -0.60149,0.12523 -0.48578,0.11007 -0.96908,0.23248 -1.45803,0.32985 -1.57939,0.31397 -2.81728,-0.18874 -3.70805,-1.54693 -0.30833,-0.47025 -0.53093,-0.9772 -0.74789,-1.49014 -0.10372,-0.24447 -0.22507,-0.51011 -0.55068,-0.47836 -0.2794,0.0268 -0.34714,0.28116 -0.4251,0.50412 -0.25012,0.71825 -0.59373,1.40582 -0.69462,2.1724 -0.0226,0.16757 -0.0374,0.38771 -0.26212,0.3937 -0.20707,0.006 -0.27234,-0.2039 -0.33619,-0.36159 -0.29069,-0.71367 -0.44309,-1.45627 -0.44274,-2.22921 2.7e-4,-0.58278 0.0381,-1.59349 0.0381,-2.29341 -0.26105,0.20356 -0.33126,0.77859 -0.34784,0.91864 m 11.182,46.99846 c -0.12171,-0.77575 -0.27446,-1.54481 -0.5775,-2.30999 -0.0145,0.51965 -0.36971,0.77753 -0.71437,1.04493 -0.90276,0.69886 -1.85808,1.32116 -2.80811,1.95192 -0.1778,0.11818 -0.43745,0.1718 -0.48049,0.49072 1.40229,0.15557 2.74955,-0.012 4.08058,-0.38453 0.41416,-0.11606 0.56339,-0.38841 0.49989,-0.79305 m 10.39425,7.01146 c 0.0857,0.3362 0.0713,0.70097 -0.20356,0.89676 -0.63041,0.44979 -1.16205,1.04564 -2.02142,1.15817 -1.24354,0.16299 -2.45533,0.29492 -3.57011,-0.45684 -1.12783,-0.0776 -1.71908,-0.80151 -2.25919,-1.70745 -0.35171,-0.59055 -0.95461,-1.02764 -1.41992,-1.5561 -0.19333,-0.21943 -0.41134,-0.16228 -0.63959,-0.17357 -1.5815,-0.0787 -3.16265,-0.14922 -4.74557,-0.0406 -0.47837,0.0328 -0.93486,-0.001 -1.30034,-0.36265 0.12524,-0.4064 0.46532,-0.39617 0.78776,-0.387 1.143,0.0335 2.28811,-0.042 3.429,0.127 0.46072,0.0681 0.93662,0.0476 1.40581,0.0522 0.3302,0.004 0.4117,-0.17286 0.27905,-0.45967 -0.0741,-0.15945 -0.14393,-0.32491 -0.24341,-0.46778 -0.3683,-0.53164 -0.57891,-1.08585 -0.19968,-1.84856 -1.41852,0.0423 -2.72097,-0.024 -4.02519,0.0935 -0.29175,0.0265 -0.60643,0.12947 -0.87101,0.0561 -0.72284,-0.20073 -1.30598,0.0769 -1.9177,0.38806 -1.65241,0.84031 -3.33833,1.59702 -5.19818,1.86055 -0.17074,0.024 -0.33973,0.10265 -0.5715,-0.0293 0.27164,-0.26246 0.6156,-0.30444 0.92146,-0.40675 3.23532,-1.08161 6.19548,-2.66347 8.83073,-4.83835 0.54328,-0.44837 1.06468,-0.92039 1.50318,-1.47813 0.23143,-0.29422 0.45968,-0.60996 0.95109,-0.50624 -0.26035,-1.39383 -0.51787,-2.71533 -0.75353,-4.04036 -0.3496,-1.96462 -0.68968,-3.93065 -1.02129,-5.89809 -0.16757,-0.99801 -0.48507,-1.93182 -1.04846,-2.77919 -0.27657,-0.41486 -0.5147,-0.85549 -0.79339,-1.26929 -0.40676,-0.60396 -0.61243,-1.26154 -0.61278,-1.98861 -0.001,-0.67028 -0.24024,-1.32186 -0.17039,-2.18299 0.46778,0.65193 0.70238,1.24143 0.7045,1.87678 0.002,0.71578 0.25118,1.29998 0.64029,1.87572 1.04457,1.54587 1.73143,3.22685 2.17664,5.05848 1.01388,4.16948 1.72649,8.39187 2.45251,12.61392 0.096,0.55845 0.10513,1.10772 -0.14746,1.639 -0.17286,0.36337 -0.15381,0.7359 -0.01,1.11125 0.61771,1.61573 1.5688,3.04165 2.76189,4.25556 0.64065,0.65088 1.5995,0.96203 2.51602,1.18992 0.42403,0.10513 0.74365,-0.084 0.86853,-0.5334 0.0452,-0.16086 2.7e-4,-0.36124 0.20073,-0.46249 0.25577,-0.0257 0.35455,0.17639 0.44486,0.35172 0.19685,0.38241 0.46566,0.6036 0.91651,0.48578 0.39653,-0.10372 0.56409,-0.38806 0.58879,-0.77859 0.008,-0.11465 0.005,-0.23424 0.10936,-0.32631 0.21378,-0.0769 0.39758,0.34536 0.61842,0.067 0.20426,-0.25752 0.0427,-0.50341 -0.0942,-0.72883 -0.23883,-0.39441 -0.59937,-0.63007 -1.03364,-0.774 -0.5849,-0.19332 -1.18251,-0.36407 -1.74201,-0.6156 -1.2319,-0.55421 -2.13819,-1.34584 -2.35021,-2.82469 -0.21696,-1.51483 -0.36548,-3.03424 -0.40534,-4.55365 -0.0896,-3.46252 -0.0995,-6.92785 -0.0395,-10.39284 0.0222,-1.27423 0.30092,-2.50155 0.62971,-3.72216 0.0617,-0.22895 0.14605,-0.45579 0.32032,-0.61983 0.63076,-0.59478 1.29258,-1.15076 2.12301,-1.52576 -0.37112,0.47025 -0.71966,0.96061 -1.11865,1.40547 -0.49918,0.55492 -0.68227,1.18251 -0.72073,1.92405 -0.12347,2.37066 -0.34325,4.7371 -0.45367,7.10776 -0.0663,1.43369 -0.091,2.87232 0.0568,4.30989 0.10795,1.04916 0.11113,2.10679 0.20849,3.15948 0.10866,1.17545 0.32385,2.32798 0.61737,3.46251 0.31785,1.22802 1.27635,1.84644 2.401,2.24896 0.27552,0.0988 0.56832,0.15205 0.83961,0.26211 0.7687,0.3108 1.19768,0.91229 1.39806,1.69792 m 11.21163,-3.3722 c -0.83185,-0.53834 -1.76671,-0.79163 -2.71357,-0.99554 -0.67274,-0.14499 -1.16663,-0.50588 -1.5875,-1.02623 -0.60325,-0.74613 -0.79692,-1.61819 -0.85231,-2.54353 -0.1143,-1.90253 -0.33584,-3.79695 -0.41522,-5.70477 -0.12453,-2.98838 -0.41733,-5.96829 -0.4893,-8.96055 -0.007,-0.32174 -0.0455,-0.64312 -0.0695,-0.9645 -0.10019,-1.34761 -0.14076,-2.65465 0.46637,-3.95499 0.73484,-1.57445 1.12572,-3.27448 1.20721,-5.02355 0.11324,-2.425 -0.23495,-4.79602 -0.81668,-7.14799 -0.60008,-2.42711 -1.79917,-4.44852 -3.8026,-5.96406 -0.37429,-0.28328 -0.59478,-0.61701 -0.67733,-1.08161 -0.35525,-1.99708 -0.80715,-3.97122 -1.55046,-5.86564 -0.14605,-0.37289 -0.0864,-0.60466 0.29986,-0.76482 2.37032,-0.98284 4.19947,-2.65007 5.80673,-4.60023 0.32314,-0.39158 0.56585,-0.81844 0.74118,-1.29081 0.2667,-0.7179 0.0959,-1.33844 -0.45543,-1.83762 -0.30233,-0.2734 -0.65123,-0.50165 -0.99942,-0.71719 -1.17193,-0.72814 -2.35303,-1.44181 -3.53131,-2.15971 -0.70203,-0.42722 -1.34902,-0.94157 -2.09162,-1.30351 -0.50588,-0.24659 -0.99977,-0.32809 -1.50636,0.13193 0.65123,-0.0406 1.20685,0.18239 1.72261,0.54399 1.77836,1.24777 3.56729,2.48144 5.33683,3.74085 0.73236,0.52176 0.8389,1.13136 0.34396,1.905 -1.3074,2.04259 -2.91077,3.75885 -5.24334,4.65102 -0.68615,0.26247 -1.37266,0.52494 -2.08986,0.68334 -1.17616,0.25894 -1.51941,-0.0857 -1.30915,-1.28905 0.0504,-0.28858 0.12841,-0.57291 0.19261,-0.85902 0.33832,-1.49542 0.5267,-3.00531 0.46708,-4.54166 -0.0441,-1.13312 -0.30762,-2.20557 -0.85408,-3.20287 -0.14287,-0.26035 -0.30021,-0.54998 -0.65299,-0.49389 -0.36089,0.0579 -0.5274,0.35595 -0.60572,0.68404 -0.14393,0.5976 0.03,1.08761 0.50695,1.49084 0.79057,0.66851 1.143,1.50847 1.07244,2.56716 -0.10478,1.56916 -0.37359,3.0854 -1.06962,4.50956 -0.16687,0.34149 -0.33126,0.6925 -0.43251,1.05692 -0.24059,0.86995 0.12489,1.38042 1.01177,1.43828 0.29069,0.0191 0.60078,0.0332 0.87524,-0.0448 0.56444,-0.16086 0.89958,0.0938 1.16875,0.53058 0.21484,0.34996 0.43604,0.69709 0.63253,1.05728 0.56903,1.04175 0.85231,2.18545 1.14865,3.32175 0.67028,2.57281 1.02905,5.17384 0.74118,7.8419 -0.0737,0.68404 -0.0109,1.38218 -0.0109,2.20804 0.30339,-1.17687 0.57715,-2.22462 0.69533,-3.30589 0.0797,-0.72848 0.18768,-1.45485 0.16122,-2.19357 -0.008,-0.21907 -0.0811,-0.51682 0.19226,-0.62441 0.25647,-0.10196 0.41769,0.15346 0.60114,0.28469 0.79093,0.56303 1.34549,1.32679 1.6764,2.21897 0.64558,1.73743 1.1624,3.53131 1.3462,5.36998 0.35489,3.54577 -0.20285,6.96666 -1.79846,10.18575 -0.3482,0.70239 -0.6985,1.40335 -1.05446,2.11879 0.61066,0.11289 0.64911,0.12524 0.72461,0.59725 0.20285,1.27494 0.44697,2.54776 0.56656,3.83117 0.32773,3.50379 0.62477,7.0111 0.88124,10.52054 0.0914,1.24954 0.53587,2.32022 1.21109,3.34574 0.37112,0.56304 0.84666,0.84561 1.4926,0.96309 0.92427,0.16827 1.82845,0.43003 2.69945,0.78916 0.32597,0.13405 0.64911,0.28363 0.88336,0.56268 0.0935,0.11077 0.22966,0.32597 0.12453,0.37818 -0.43215,0.2166 -0.30762,0.65652 -0.46249,0.97825 -0.21908,0.45614 -0.70873,0.51682 -1.06363,0.14182 -0.21413,-0.22613 -0.33231,-0.56551 -0.71331,-0.59867 -0.018,1.06998 -0.38136,1.48167 -1.22591,1.20227 -1.31021,-0.43427 -2.53224,-0.98566 -3.27871,-2.32481 -0.8382,-1.50459 -1.6122,-3.07446 -2.89807,-4.28872 -0.29069,-0.27481 -0.3556,-0.66921 -0.39088,-1.05339 -0.0663,-0.7306 -0.13864,-1.4605 -0.17709,-2.19251 -0.13124,-2.52236 -0.43004,-5.02744 -0.77435,-7.52687 -0.1203,-0.86924 -0.36724,-1.73002 0.0942,-2.57493 0.0152,-0.0289 -0.0402,-0.0963 -0.0716,-0.16545 -0.073,0.048 -0.1651,0.0776 -0.2099,0.14111 -1.39383,1.96956 -3.23039,3.47733 -5.14456,4.8962 -0.58879,0.43639 -0.69744,0.97755 -0.5775,1.62419 0.0346,0.18768 0.0194,0.44627 0.27587,0.49919 0.19438,0.0402 0.3108,-0.13688 0.43463,-0.25542 1.16628,-1.11618 2.33856,-2.22638 3.33304,-3.50731 0.13264,-0.17075 0.22296,-0.42757 0.50447,-0.41487 0.14746,0.0998 0.1771,0.24765 0.20673,0.38735 0.51788,2.41194 0.96132,4.83482 1.17933,7.29615 0.0829,0.93416 0.20744,1.86514 0.33373,2.79471 0.0656,0.4833 0.29351,0.89076 0.70626,1.17404 1.1042,0.75812 1.79211,1.82069 2.32234,3.03107 0.83291,1.90218 2.61796,2.44722 4.40443,2.95134 0.21696,0.0614 0.46884,0.024 0.70168,-2.7e-4 0.81526,-0.0854 1.59984,-0.33937 2.419,-0.43145 0.55668,-0.0621 0.78669,-0.43391 0.77328,-1.00753 -0.018,-0.78458 -0.3436,-1.40476 -1.01917,-1.84185 m -51.09316,1.28764 c -0.001,-0.26812 -0.24306,-0.28152 -0.45332,-0.30445 -2.228497,-0.24271 -4.36986,-0.84349 -6.46042,-1.62525 -4.310592,-1.61325 -7.926565,-4.14761 -10.517365,-8.02358 -0.08537,-0.12805 -0.13335,-0.34748 -0.408517,-0.27234 -0.104775,1.09467 0.08432,2.14242 0.494597,3.16547 1.07597,2.68253 2.92382,4.70147 5.319183,6.26181 0.305152,0.19897 0.889352,0.27658 0.829733,0.66322 -0.0762,0.49812 -0.701675,0.2219 -1.165931,0.45614 0.421923,0.31292 0.825148,0.4692 1.23825,0.60361 3.451931,1.12254 6.920793,1.01564 10.39883,0.13405 0.11254,-0.0286 0.24236,-0.0508 0.32491,-0.12135 0.28399,-0.24201 0.40181,-0.57926 0.40005,-0.93733 m 23.71654,-0.1584 c 0.0487,0.13547 0.097,0.27164 0.14711,0.40675 0.3623,0.97543 0.16404,1.5307 -0.7373,2.05634 -0.0759,0.0445 -0.17075,0.0646 -0.23425,0.12101 -1.08479,0.96237 -2.38654,1.0608 -3.73168,0.90099 -0.9077,-0.10795 -1.8154,-0.11924 -2.72486,-0.12065 -3.99379,-0.005 -7.98724,-0.01 -11.98068,0.004 -0.97226,0.003 -1.92688,-0.1778 -2.89525,-0.20955 -0.40852,-0.0138 -0.80715,-0.16122 -1.16487,-0.37465 -0.79798,-0.47589 -0.79693,-0.44662 -1.617135,-0.46214 -1.645357,-0.0307 -3.282247,0.21978 -4.927248,0.13088 -1.903236,-0.10336 -3.814234,-0.16016 -5.676549,-0.62477 -1.567743,-0.39087 -2.971093,-1.09784 -4.104216,-2.27435 -0.315029,-0.32668 -0.651934,-0.65511 -0.795867,-1.22873 0.836083,0.16898 1.501071,0.66111 2.515658,0.65334 -2.435225,-1.44921 -4.481335,-2.99825 -4.991803,-5.93513 0.571852,0.11924 0.734483,0.63888 1.306687,0.81598 -0.209196,-0.43286 -0.356304,-0.74119 -0.506942,-1.0474 -0.950381,-1.93393 -1.085143,-3.9363 -0.505883,-5.99863 0.02363,-0.085 0.05115,-0.16828 0.08149,-0.25118 0.06915,-0.19156 0.105834,-0.43815 0.336199,-0.47907 0.292451,-0.0529 0.385585,0.21484 0.4953,0.41663 0.365831,0.66992 0.710848,1.35149 1.088318,2.014 2.442282,4.29296 5.955596,7.35472 10.553348,9.17188 1.561748,0.61736 3.169357,1.06997 4.80836,1.41675 0.191559,0.0399 0.391938,0.12136 0.586673,0.037 0,-0.0854 0.0243,-0.16369 -0.004,-0.19473 -1.38924,-1.52753 -1.760715,-3.43711 -1.888419,-5.38269 -0.271288,-4.14407 0.779637,-7.92091 3.438169,-11.17035 0.91123,-1.11407 1.98297,-2.07751 3.09492,-2.99826 3.25473,-2.69522 6.48476,-5.41866 9.73032,-8.12517 1.69227,-1.41182 3.4678,-2.71357 5.30895,-3.92395 0.34255,-0.22508 0.5655,-0.46814 0.60995,-0.89676 0.10725,-1.02553 0.64488,-1.8094 1.45945,-2.41265 0.40428,-0.29916 0.76835,-0.5909 0.88758,-1.14053 0.10196,-0.47272 0.51365,-0.77364 0.8823,-1.06751 0.3683,-0.29457 0.6985,-0.61983 1.00824,-0.9779 0.82021,-0.94826 1.12466,-2.04011 1.0033,-3.26884 -0.0204,-0.20425 -0.0441,-0.40886 -0.0801,-0.61065 -0.28152,-1.55505 0.18627,-1.61749 -1.82351,-1.7325 -0.9024,-0.11324 -1.7466,-0.3623 -2.02671,-1.39876 -0.03,-0.11254 -0.0586,-0.23107 0.0543,-0.32209 0.13441,-0.0406 0.22684,0.0409 0.3101,0.1203 0.65016,0.61807 1.45873,0.79128 2.29058,0.6544 1.30316,-0.21484 2.57352,0.0166 3.85551,0.12983 0.29175,0.0254 0.58314,0.0575 0.87489,0.0875 1.23296,0.12771 2.25601,-0.24835 3.02648,-1.24812 0.10195,-0.13194 0.1838,-0.30763 0.39052,-0.31715 0.0409,0.0384 0.11995,0.0857 0.1136,0.11077 -0.16369,0.6544 0.13335,1.08656 0.59902,1.52541 1.76177,1.65841 3.3147,3.48933 4.42559,5.66209 0.90523,1.77024 1.42099,3.66113 1.74519,5.61163 0.0293,0.17286 0.031,0.35102 0.0353,0.5267 0.002,0.084 -0.0191,0.16792 -0.12453,0.28046 -0.09,-0.29034 -0.18556,-0.57961 -0.26987,-0.87171 -0.55175,-1.923 -1.17334,-3.81777 -2.17841,-5.56331 -1.11865,-1.94381 -2.5601,-3.57258 -4.52261,-4.70535 -0.41416,-0.23918 -0.81244,-0.43921 -1.32609,-0.28646 -0.40922,0.12207 -0.58702,0.34855 -0.56656,0.76059 0.0212,0.42051 0.19262,0.79587 0.34713,1.17652 0.41769,1.02764 0.90064,2.03482 0.99343,3.24132 -0.27447,-0.20144 -0.29316,-0.46779 -0.36584,-0.69109 -0.33866,-1.04528 -0.89958,-1.9745 -1.48413,-2.89137 -0.65546,-1.02694 -1.70815,-1.26753 -2.8127,-1.37619 -0.37288,-0.037 -0.53516,0.17604 -0.48824,0.54751 0.03,0.23319 0.0639,0.46532 0.0829,0.69921 0.14252,1.78823 -0.40182,3.35562 -1.52153,4.74133 -0.25753,0.31927 -0.50201,0.65194 -0.72531,0.99625 -0.58456,0.89994 -0.54222,1.56986 0.12206,2.40065 0.10195,0.12771 0.28187,0.22649 0.19685,0.46355 -0.30833,0.0617 -0.53905,-0.16898 -0.80963,-0.24518 -0.9338,-0.26388 -1.62383,0.0374 -2.00166,0.93663 -0.29986,0.71508 -0.31538,1.42698 0.16122,2.09197 0.11747,0.16404 0.2286,0.33267 0.39935,0.58173 -0.47167,0.0529 -0.78211,-0.18062 -1.10067,-0.32244 -0.35666,-0.15946 -0.65299,-0.1517 -0.98672,0.0681 -3.57999,2.35796 -7.16068,4.70887 -10.36355,7.58754 -1.59209,1.43087 -3.2819,2.75237 -4.90644,4.14761 -1.86302,1.59879 -3.51331,3.37326 -4.56106,5.63986 -0.712965,1.54128 -1.085146,3.16089 -1.182158,4.84575 -0.08114,1.40935 -0.0053,2.8134 0.154516,4.21816 0.297744,2.6095 1.634772,4.0192 4.238622,4.40761 0.21449,0.0317 0.47766,-0.0589 0.63183,0.19085 -0.0741,0.2921 -0.35031,0.28328 -0.5454,0.38735 -0.28433,0.1517 -0.57291,0.29528 -0.85901,0.44274 -0.89429,0.46214 -0.80257,1.6129 0.14817,2.09268 0.45826,0.23142 0.95673,0.25223 1.46085,0.25223 2.81869,2.7e-4 5.63986,-0.0526 8.45608,0.0353 1.87325,0.0586 3.75426,0.0501 5.62187,0.27411 0.4071,0.049 0.82021,0.0448 1.22273,-0.0744 0.59407,-0.17638 0.68897,-0.29174 0.71649,-0.91933 0.005,-0.11395 -0.0384,-0.2339 0.10301,-0.3616 0.36054,0.0367 0.55456,0.3489 0.79834,0.58667 0.49,0.47907 0.81209,0.54857 1.22872,0.26811 0.4258,-0.28681 0.49283,-0.57821 0.28152,-1.2125 -0.0177,-0.0543 -0.0282,-0.11253 -0.0328,-0.16933 -0.001,-0.024 0.0219,-0.0501 0.0444,-0.0974 0.32984,-0.0759 0.51928,0.16969 0.73483,0.35278 0.11219,0.0956 0.22296,0.21202 0.38347,0.14217 0.19403,-0.0847 0.20038,-0.27446 0.1965,-0.45121 -0.0106,-0.48612 -0.27834,-0.81526 -0.66181,-1.07844 -0.73625,-0.50517 -1.55611,-0.49424 -2.37702,-0.35489 -1.01247,0.1711 -2.02106,0.37183 -3.02154,0.60148 -1.41182,0.32385 -2.83351,0.48754 -4.28061,0.381 -0.70555,-0.0519 -1.4044,-0.1598 -2.05986,-0.4318 -0.69956,-0.28998 -0.75248,-0.67204 -0.16793,-1.16557 0.58985,-0.49848 1.28764,-0.8128 1.99567,-1.10561 1.19203,-0.49389 2.41723,-0.91616 3.51084,-1.62524 3.08716,-2.00202 5.34,-4.65879 6.40115,-8.22855 0.66534,-2.23767 0.35702,-4.3568 -0.91651,-6.32248 -0.9137,-1.41005 -2.25284,-2.10044 -3.89432,-2.24825 -1.27494,-0.11466 -2.52553,0.0515 -3.73697,0.44485 -2.00554,0.65017 -3.83893,1.6129 -5.36998,3.09421 -0.10266,0.0998 -0.21837,0.18557 -0.37183,0.31503 -0.11748,-0.31291 0.0628,-0.47589 0.19014,-0.63923 1.70957,-2.19886 3.95747,-3.54083 6.65339,-4.16313 1.1303,-0.26141 2.28847,-0.29422 3.41525,-0.11077 2.3816,0.38735 4.03436,1.76001 5.0165,3.96663 0.90875,2.04117 0.8583,4.09575 0.21448,6.19019 -0.97225,3.16054 -2.89842,5.58871 -5.57882,7.47783 -1.35855,0.95674 -2.89031,1.55822 -4.36316,2.28318 -0.3944,0.19474 -0.78881,0.39194 -1.17369,0.60537 -0.17851,0.0988 -0.36971,0.23424 -0.33867,0.47237 0.036,0.28257 0.28928,0.3683 0.51717,0.39864 0.58033,0.0773 1.17088,0.19861 1.74767,0.16086 1.11019,-0.0727 2.21756,-0.19226 3.30517,-0.47484 0.82162,-0.21343 1.66582,-0.34607 2.50472,-0.48648 1.2439,-0.20849 2.32058,0.13124 3.20428,1.04599 m -0.003,-0.007 c 0.001,0.002 0.002,0.005 0.003,0.007 8e-4,0.001 0.002,0.002 0.004,0.004 2.7e-4,-10e-4 10e-4,-0.002 10e-4,-0.003 -0.003,-0.003 -0.005,-0.005 -0.008,-0.007 M 186.47228,72.525964 c -0.20461,-0.227541 -0.44132,0.04198 -0.44132,0.04198 -0.38594,0.445558 0.36688,0.329496 0.36688,0.329496 0,0 0.27835,-0.143933 0.0744,-0.371475 m -3.96589,-13.203416 c 0.91087,-0.880533 1.32856,-1.961798 1.36525,-3.193698 0.0265,-0.891116 -0.0265,-1.784702 -0.0508,-2.677228 -0.007,-0.243417 -0.0554,-0.478015 -0.32632,-0.636765 -0.37429,0.453673 -0.56515,0.980016 -0.73095,1.52259 -0.48754,1.604078 -0.8636,3.236735 -1.25131,4.866568 -0.0374,0.156282 -0.0716,0.316442 -0.1344,0.462844 -0.0512,0.116771 -0.12595,0.265996 -0.29563,0.198966 -0.14746,-0.05891 -0.1584,-0.216252 -0.13829,-0.346427 0.0413,-0.265641 0.12912,-0.520348 0.12876,-0.796573 -0.003,-1.199443 0.20814,-2.36855 0.54046,-3.517193 0.0596,-0.207082 0.15628,-0.40499 0.0656,-0.626534 -0.0508,0.01834 -0.11395,0.02117 -0.14323,0.05433 -1.04493,1.178984 -1.9304,2.464859 -2.63702,3.877734 -0.15416,0.310091 -0.0737,0.506589 0.10019,0.730956 0.46779,0.602898 1.04705,1.091494 1.62419,1.581857 0.29457,0.249766 0.50765,0.158043 0.73237,-0.142172 0.3556,-0.475191 0.72672,-0.948266 1.15111,-1.359252 m -9.45762,-2.881135 c 0.45015,1.199444 -0.0339,2.069746 -0.86466,2.837037 -0.39969,0.369007 -0.83185,0.6858 -1.29081,0.972609 -1.0982,0.6858 -2.20521,1.360664 -3.28965,2.067631 -0.44239,0.288573 -0.82303,0.659342 -0.97473,1.308452 0.94404,-0.238829 1.71274,-0.628295 2.49767,-0.961319 1.16769,-0.4953 2.33539,-1.005416 3.36762,-1.757185 0.70061,-0.510471 1.35607,-1.078796 1.64147,-1.949804 0.32667,-0.998361 -0.13194,-2.138892 -1.08691,-2.517421 m 14.75634,11.238442 c -0.16157,0.137583 -0.31996,0.02363 -0.42474,-0.09137 -0.52564,-0.581025 -1.05057,-1.162754 -1.55293,-1.763887 -0.62653,-0.751065 -1.32009,-1.424517 -2.1216,-1.988257 -0.24201,-0.170392 -0.48895,-0.300215 -0.85866,-0.345017 0.48471,1.11125 0.90734,2.156532 1.4605,3.143602 0.3503,0.623359 0.81773,1.134182 1.39982,1.551517 0.28398,0.202848 0.55033,0.43815 0.7941,0.688623 0.37606,0.386998 0.59725,0.880885 0.46249,1.402998 -0.20179,0.780696 -0.23883,1.48731 0.50342,2.104319 -0.41734,0.15381 -0.61278,0.39864 -0.762,0.734483 -0.24589,0.553508 -0.62689,1.01106 -1.26542,1.16346 -0.0307,0.0074 -0.0614,0.01587 -0.0914,0.02434 -0.10054,-0.01939 -0.19932,-0.0013 -0.27975,0.07232 -0.084,0.0769 -0.13159,0.187677 -0.18909,0.283279 -0.11253,0.186973 -0.18697,0.403225 -0.30515,0.58773 -0.21943,-0.0949 -0.23566,-0.310092 -0.24659,-0.534813 -0.0374,-0.74295 0.26776,-1.370187 0.66992,-1.958621 0.38206,-0.557038 0.79763,-1.089731 1.15994,-1.662996 0.36053,-0.569735 0.30233,-1.058333 -0.0907,-1.564217 -0.25223,-0.32526 -0.54927,-0.609952 -0.88865,-0.825145 -1.0414,-0.6604 -1.61325,-1.639358 -1.99107,-2.771423 -0.12841,-0.383469 -0.3048,-0.750359 -0.44309,-1.130652 -0.43639,-1.197682 -1.24566,-2.07645 -2.32057,-2.723446 -0.54293,-0.326319 -0.98249,-0.757061 -1.36702,-1.250244 -0.73166,-0.936977 -1.46262,-1.875367 -2.18475,-2.819752 -0.2988,-0.390525 -0.6604,-0.71614 -1.02235,-1.03999 -0.27693,-0.246591 -0.5969,-0.429683 -0.96203,-0.478366 -0.0822,0.1778 -0.007,0.266348 0.0459,0.353483 0.69251,1.127477 0.53587,2.27471 0.0519,3.411715 -0.60501,1.420283 -1.58644,2.520243 -2.99755,3.162652 -1.81857,0.827968 -3.55353,1.84009 -5.45465,2.486377 -0.51999,0.176741 -0.7052,0.572913 -0.63959,1.084088 0.1397,1.075618 0.15099,2.154412 0.14888,3.236383 -0.001,0.642408 -0.19086,1.223079 -0.47414,1.784702 -0.049,0.09631 -0.11077,0.188735 -0.24941,0.170743 -0.15381,-0.06033 -0.16193,-0.203903 -0.15134,-0.332668 0.0822,-1.009298 -0.10795,-1.988257 -0.29916,-2.97039 -0.0984,-0.50306 -0.13829,-1.017058 -0.21519,-1.524352 -0.0632,-0.418042 -0.13935,-0.461433 -0.52846,-0.254 -1.94451,1.038225 -3.38773,2.492375 -3.88021,4.724752 -0.0233,0.105481 -0.0219,0.216958 -0.0512,0.319971 -0.0296,0.104421 -0.0843,0.206021 -0.22507,0.172509 -0.0843,-0.02011 -0.14147,-0.08114 -0.14464,-0.168982 -0.007,-0.215193 -0.0307,-0.43321 -0.005,-0.645583 0.12101,-1.01106 0.43674,-1.966032 1.0407,-2.783769 0.91228,-1.234723 1.75789,-2.535766 3.06669,-3.424766 0.4632,-0.31468 0.73802,-0.763059 0.78141,-1.355725 0.12418,-1.691924 0.83608,-3.013782 2.21333,-3.902075 0.12594,-0.03634 0.25082,-0.07408 0.37535,-0.111125 0.15981,-0.04833 0.3242,-0.103717 0.46849,-0.190149 0.048,-0.02857 0.0924,-0.06103 0.13829,-0.09243 0.0109,-0.0071 0.0219,-0.01342 0.0314,-0.02117 0.0123,-0.0081 0.0247,-0.01659 0.0367,-0.02434 0.0243,-0.01482 0.049,-0.02822 0.0744,-0.04163 0.14288,-0.04127 0.29316,-0.09737 0.39899,-0.198612 0.32879,-0.124884 0.65405,-0.267759 0.94615,-0.464609 0.69497,-0.27305 1.34338,-0.592666 1.87502,-1.147233 0.0557,-0.05856 0.12453,-0.111832 0.16016,-0.181682 0.19261,-0.377118 0.47942,-0.733425 0.14958,-1.193448 -0.14359,-0.200377 -0.0889,-0.472016 -0.09,-0.714375 -0.003,-0.757766 -0.005,-1.515178 0,-2.272593 0.002,-0.300567 -0.0318,-0.589844 -0.14253,-0.872773 -0.17215,-0.441677 -0.35665,-0.488244 -0.68509,-0.1524 -0.0744,0.0762 -0.14111,0.164748 -0.1965,0.256471 -1.12642,1.867958 -2.16464,3.769429 -2.35267,6.098468 -0.0243,0.01199 -0.0452,0.03175 -0.0452,0.06809 -7.9e-4,0.139348 -0.0226,0.276931 -0.0635,0.410633 -0.0388,0.05327 -0.0769,0.108305 -0.12241,0.156633 -0.048,0.05116 -0.10125,0.09631 -0.16545,0.113597 -0.066,0.01799 -0.16017,0.02222 -0.21802,-0.0063 -0.019,-0.0095 -0.0395,-0.01093 -0.0586,-0.0074 -0.75389,-0.690388 -0.7105,-1.56704 -0.44521,-2.500138 0.59373,-2.087033 1.5427,-3.974041 3.05823,-5.552016 0.26141,-0.272696 0.47766,-0.591254 0.74966,-0.851252 0.39581,-0.377825 0.67415,-0.315032 0.82408,0.202848 0.13477,0.464254 0.19297,0.950735 0.28293,1.427692 0.01,0.05292 0.005,0.10936 0.0173,0.161218 0.30515,1.257652 0.0543,1.480257 1.57868,1.482373 1.13983,0.0019 2.04894,0.639234 2.73403,1.54305 0.55562,0.732367 1.0735,1.49225 1.61078,2.238021 0.12348,0.171098 0.19403,0.390879 0.45685,0.482954 0.23671,-1.234016 1.19698,-2.013656 1.85455,-2.984854 0.3168,-0.469194 0.69921,-0.893586 1.03611,-1.350434 0.21237,-0.288218 0.45685,-0.525991 0.77082,-0.702733 0.46814,-0.263877 0.80363,-0.586317 0.6029,-1.21285 -0.097,-0.30127 0.0374,-0.612069 0.32526,-0.765879 0.31961,-0.170746 0.65828,-0.07444 0.89817,0.168275 0.46179,0.467784 0.77647,1.029052 0.94157,1.674635 0.3048,1.189919 0.0614,2.358319 -0.12313,3.528132 -0.0589,0.372179 -0.20214,0.73025 -0.26705,1.102077 -0.2039,1.164873 -0.87171,2.015418 -1.78646,2.706158 -0.0861,0.06491 -0.18274,0.117475 -0.26353,0.188735 -0.70026,0.618422 -0.68086,0.985309 0.0907,1.48308 0.49988,0.322792 1.01211,0.625475 1.518,0.937683 1.1998,0.740127 2.08491,1.792817 2.89207,2.920294 0.34643,0.483306 0.67769,0.977548 1.01106,1.470025 0.0956,0.140758 0.15416,0.307268 0.001,0.437798 m -17.66394,5.002742 c -0.20708,-0.183092 -0.49635,-0.220134 -0.61454,-0.227542 -0.0346,-0.0021 -0.10654,0.01976 -0.13088,0.03034 -0.4258,0.192971 -0.4318,0.426156 -0.4318,0.426156 0,0 0.0127,0.191911 0.14923,0.235302 0.13617,0.04339 0.17321,-0.09878 0.17321,-0.09878 0,0 0.13582,-0.2667 0.32209,-0.2667 0.18591,0 0.22295,0.04974 0.37782,0.173215 0.15487,0.124177 0.26,0.06244 0.26,0.06244 0,0 0.16087,-0.09913 -0.10513,-0.334433 m 1.90853,1.794578 c -0.44415,-0.01622 -0.8509,0.07021 -1.25871,0.231072 -0.27376,0.10795 -0.56832,0.161218 -0.83573,0.233891 -0.42722,-0.07514 -0.80574,-0.194029 -1.12254,-0.473429 -0.46143,-0.408517 -0.7045,-0.946854 -0.90699,-1.507771 -0.0878,-0.243771 -0.0381,-0.48119 0.1277,-0.685096 0.1517,-0.186619 0.3362,-0.348895 0.37183,-0.611717 0.008,-0.06456 0.0896,-0.16157 0.14711,-0.169333 0.50447,-0.0702 1.01247,-0.178858 1.51624,-0.163687 0.40393,0.01199 0.75247,0.264583 1.0354,0.576437 0.54928,0.605367 0.93486,1.315508 1.28341,2.042231 0.19579,0.408165 0.0974,0.543632 -0.35772,0.527402 m -2.86314,-18.890191 c -0.41875,0.771879 -0.6029,1.606198 -0.61348,2.480733 -0.002,0.192617 0.0469,0.37324 0.15628,0.535517 0.0614,0.09066 0.12029,0.179564 0.24835,0.167923 0.11924,-0.01164 0.21273,-0.08925 0.23883,-0.186973 0.0483,-0.179562 0.0868,-0.370769 0.0794,-0.554919 -0.0272,-0.65546 0.0945,-1.285168 0.26881,-1.912056 0.0773,-0.276225 0.1136,-0.563737 0.16828,-0.846312 -0.34043,-0.07267 -0.4505,0.138993 -0.54645,0.316087 m 18.8348,37.225816 c -0.11783,-0.113948 -0.26493,-0.212725 -0.43215,-0.09596 -0.16052,0.112183 -0.13794,0.2794 -0.078,0.438504 0.0377,0.100894 0.0928,0.195086 0.13724,0.293863 0.21625,0.480131 0.3309,0.970846 0.16368,1.494721 -0.0324,0.1016 -0.0512,0.211666 -0.0533,0.318558 -0.003,0.130879 -0.008,0.300212 0.1397,0.343604 0.20744,0.06068 0.28434,-0.123471 0.33126,-0.272696 0.12065,-0.385233 0.25647,-0.769762 0.24589,-1.226256 0.0222,-0.461785 -0.0776,-0.927806 -0.45438,-1.294342 m -18.2947,-23.969837 c -0.0233,0.05927 0,0.170744 0.0462,0.218721 0.16722,0.173214 0.34572,0.337963 0.53199,0.491066 1.0922,0.897467 2.34703,1.639359 2.90266,3.048355 0.0191,0.04833 0.061,0.08819 0.0935,0.130879 0.0529,0.06915 0.12207,0.106539 0.20814,0.0829 0.12665,-0.03528 0.1591,-0.140054 0.14253,-0.250121 -0.0191,-0.131233 -0.0444,-0.267404 -0.0977,-0.386995 -0.49247,-1.097492 -1.1377,-2.075392 -2.2038,-2.70228 -0.46143,-0.271637 -0.93803,-0.518229 -1.4037,-0.773642 -0.0991,0.05962 -0.1972,0.08537 -0.21978,0.141113 m 8.76582,-5.053896 c 0.036,-0.19826 -0.0526,-0.422627 -0.0974,-0.631825 -0.0339,-0.159102 -0.0825,-0.349954 -0.26177,-0.373237 -0.23953,-0.0314 -0.29915,0.198967 -0.36583,0.365125 -0.40181,1.002945 -0.70167,2.037292 -0.89394,3.100562 -0.0328,0.1778 -0.0677,0.377121 0.21132,0.607838 0.77646,-0.915458 1.20191,-1.943807 1.40758,-3.068463 m -1.19415,32.65664 c 0.0667,0.178152 0.18521,0.371827 0.39405,0.35207 0.24977,-0.02328 0.22296,-0.268462 0.22895,-0.44732 0.013,-0.429684 -0.0268,-0.863955 0.0205,-1.288346 0.0822,-0.738717 0.26811,-1.425221 1.07668,-1.741311 0.2233,-0.08749 0.58807,-0.252589 0.43603,-0.556683 -0.14993,-0.301977 -0.51753,-0.188735 -0.80292,-0.104069 -0.10055,0.02999 -0.19262,0.09419 -0.28716,0.144638 -1.02553,0.544337 -1.11937,1.563864 -1.30528,2.479675 0.0254,0.440973 0.10759,0.808214 0.23918,1.161346 m 2.65959,7.497934 c -1.41993,0.0367 -2.96122,-0.89605 -3.50202,-2.40806 -0.17216,-0.48154 -0.32068,-0.97225 -0.47484,-1.4605 -0.0409,-0.129466 -0.067,-0.287158 -0.23283,-0.278691 -0.20109,0.01058 -0.24765,0.176387 -0.25224,0.349601 -0.004,0.13476 -0.0102,0.26988 -0.001,0.40393 0.0921,1.31234 0.69709,2.37102 1.66441,3.22121 0.90099,0.79199 1.98931,0.907 3.1242,0.70909 0.24659,-0.043 0.53516,-0.10689 0.63006,-0.42969 -0.31186,-0.19473 -0.64347,-0.115 -0.95568,-0.10689 M 132.47763,90.439872 c 0.0501,-0.18415 0.0501,-0.397933 -0.15628,-0.494593 -0.17921,-0.08326 -0.29986,0.06385 -0.39652,0.192968 -0.74612,0.992365 -1.80798,1.488369 -2.93546,1.887009 -0.37324,0.131585 -0.81951,0.207081 -0.92216,0.677685 -0.0536,0.248005 0.46884,0.455438 1.09784,0.457555 1.49296,-0.03563 2.8695,-1.088674 3.31258,-2.720624 m 52.89656,-15.620645 c -0.002,-0.0028 -0.005,-0.0056 -0.006,-0.0085 -0.0138,-0.01659 -0.0275,-0.03316 -0.0416,-0.04868 -0.007,-0.0071 -0.0145,-0.01482 -0.0219,-0.02151 -0.004,-0.0035 -0.008,-0.0074 -0.0124,-0.0113 -0.002,-0.0013 -0.0155,-0.01058 -0.004,-0.0028 0.012,0.0074 -0.004,-0.0028 -0.006,-0.0046 -0.004,-0.0028 -0.008,-0.0049 -0.0113,-0.0074 -0.006,-0.0035 -0.0166,-0.0074 -0.0236,-0.01236 -0.004,-0.0011 -0.007,-0.0028 -0.0116,-0.0032 -0.005,-0.0013 -0.009,-0.0021 -0.0138,-0.0035 -0.008,-2.65e-4 -0.0166,-7.94e-4 -0.025,-2.65e-4 -0.01,7.94e-4 -0.0159,0.0053 2.6e-4,-7.93e-4 -0.005,0.0021 -0.0113,0.0024 -0.0169,0.0039 -0.009,0.0013 -0.018,0.0049 -0.0265,0.0078 -0.18062,0.176387 -0.27199,0.445559 -0.35207,0.676627 -0.0635,0.183798 -0.12841,0.367594 -0.18627,0.552802 -0.12594,1.557515 -0.13864,3.118908 -0.13053,4.680657 0.002,0.338312 -0.0773,0.712258 0.26741,0.959553 0.21625,-0.07902 0.27199,-0.254 0.30621,-0.446968 0.34467,-1.945217 0.48683,-3.90525 0.42863,-5.8801 -0.005,-0.163335 -0.0406,-0.307269 -0.11325,-0.429329 m -9.4876,-5.343173 c 0.0621,-1.039283 0.18521,-2.082448 0.4385,-3.105857 0.23919,-0.964845 0.40111,-1.949095 0.58314,-2.927701 0.0275,-0.148519 0.0254,-0.349602 -0.17462,-0.401461 -0.21132,-0.05468 -0.266,0.13335 -0.32597,0.279046 -0.42933,1.044575 -0.88653,2.079273 -1.27459,3.139371 -0.43497,1.189212 -0.5715,2.402769 -0.10018,3.632552 0.18485,0.481542 0.42368,0.900993 0.96943,1.307748 -0.004,-0.75918 -0.14922,-1.353608 -0.11571,-1.923698 m -42.74884,17.075468 c 0.0787,-0.203907 0.13264,-0.409927 0.11324,-0.631119 -0.009,-0.108656 -0.0201,-0.221546 -0.12594,-0.275873 -0.11359,-0.05821 -0.21519,0.0095 -0.28575,0.08925 -0.10689,0.119946 -0.18909,0.261408 -0.2921,0.385233 -0.36054,0.432507 -0.65758,0.916165 -1.12536,1.260475 -1.34832,0.989897 -2.80635,1.692275 -4.50145,1.823509 -0.15839,0.01198 -0.31467,0.06879 -0.4706,0.111125 -0.15593,0.04198 -0.33796,0.07937 -0.33972,0.281871 -0.002,0.140052 0.11888,0.233185 0.23247,0.311854 0.49672,0.342548 1.06257,0.353483 1.59385,0.33655 2.4437,0.106891 4.37763,-1.552575 5.20136,-3.692877 m 42.8812,-27.56429 c -0.0501,-0.11571 -0.10019,-0.268462 -0.27446,-0.240242 -0.17639,0.02857 -0.18592,0.19403 -0.17851,0.316442 0.0487,0.804333 -0.24623,1.535996 -0.45049,2.288823 -0.32597,1.199798 -1.00648,2.140302 -2.038,2.818694 -0.81209,0.534458 -1.65806,1.007181 -2.59786,1.294696 -0.33196,0.101245 -0.64487,0.268817 -0.9592,0.422275 -0.0935,0.04551 -0.15875,0.145695 -0.12312,0.270227 0.036,0.126648 0.14535,0.15099 0.25153,0.160515 0.10619,0.0099 0.21731,0.01236 0.32244,-0.0063 0.82197,-0.148522 1.64642,-0.293513 2.42499,-0.609955 2.33751,-0.950735 3.77438,-2.865612 3.88338,-5.516033 0.019,-0.326671 -0.0751,-0.773287 -0.2607,-1.199092 m 4.60904,28.553833 c -0.46567,-2.937581 -1.00118,-5.858581 -2.12584,-8.634589 -0.17639,-0.436737 -0.46284,-0.790927 -0.77575,-1.130652 -0.11607,-0.12559 -0.26212,-0.228248 -0.42616,-0.131234 -0.17921,0.106186 -0.1083,0.28575 -0.0487,0.434624 0.28222,0.702378 0.58561,1.397 0.85266,2.105025 0.3436,0.909108 0.7366,1.80975 0.97084,2.748491 0.37324,1.494719 0.56762,3.024717 0.53623,4.574469 -0.0173,0.865365 0.23283,1.7145 0.17109,2.58445 -0.01,0.128765 0.0198,0.280458 0.18486,0.321027 0.1591,0.03951 0.25259,-0.07091 0.32456,-0.184854 0.34536,-0.550688 0.41098,-1.16558 0.40957,-1.797405 -0.0236,-0.296685 -0.0272,-0.596545 -0.0734,-0.889352 m 1.15782,9.459032 c -0.67945,-0.904171 -1.68099,-1.528588 -2.18758,-2.587625 -0.15098,-0.315383 -0.45296,-0.252942 -0.68791,0.11571 -1.05975,1.66229 -0.33761,4.132085 1.54516,4.684535 0.88512,0.259292 1.66441,-0.261408 1.69475,-1.269293 0.0325,-0.304448 -0.12418,-0.624417 -0.36442,-0.943327 M 144.57601,71.983246 c -1.19133,1.363485 -2.0133,2.9464 -2.56681,4.651023 -0.63112,1.944862 -0.89006,3.942289 -0.54857,5.992987 0.14605,0.880181 0.32984,1.749777 0.54116,2.615141 0.0325,0.132999 0.097,0.291042 0.24342,0.286457 0.2039,-0.0071 0.23389,-0.196498 0.23918,-0.36195 0.004,-0.133705 -0.008,-0.27023 -0.0296,-0.402521 -0.20814,-1.26365 -0.20003,-2.549171 -0.0579,-3.798711 0.33091,-2.913239 1.08091,-5.726641 2.42535,-8.358362 0.14393,-0.281871 0.33866,-0.556683 0.32949,-0.94615 -0.34043,-0.05997 -0.44556,0.172861 -0.57573,0.322086 m 41.98549,17.479785 c -0.33549,-0.763765 -0.63711,-1.545873 -0.91299,-2.333625 -0.72248,-2.06234 -1.44744,-4.124325 -2.12231,-6.202185 -0.34925,-1.075622 -0.74612,-2.14348 -0.91616,-3.272015 -0.0127,-0.08008 -0.0247,-0.161573 -0.0515,-0.236715 -0.0536,-0.15522 -0.12101,-0.318204 -0.3168,-0.316442 -0.2032,0.0013 -0.2607,0.172157 -0.28504,0.331965 -0.0575,0.37606 -0.0691,0.756708 0.0243,1.127477 0.22436,0.888648 0.43039,1.783292 0.69744,2.659592 0.84208,2.761546 1.76001,5.498396 2.77283,8.202438 0.25541,0.681918 0.50236,1.36807 0.77858,2.042583 0.0737,0.179562 0.14852,0.458258 0.42616,0.399695 0.24553,-0.05221 0.23883,-0.331962 0.3235,-0.521758 0.0208,-0.04692 0.013,-0.106537 0.0229,-0.204258 -0.15558,-0.527402 -0.19721,-1.121479 -0.44098,-1.676752 m 0.62865,9.089673 c -0.0501,7.94e-4 -0.10089,-0.0019 -0.15169,-0.0074 -0.0385,-0.0046 -0.0769,-0.0085 -0.11536,-0.01024 -0.0353,0.02045 -0.067,0.04692 -0.0928,0.0822 -0.055,0.07585 -0.0974,0.159809 -0.15452,0.234244 -0.0688,0.09031 -0.14217,0.178152 -0.21378,0.265993 -0.0822,0.09913 -0.17251,0.188032 -0.27129,0.268113 -0.004,0.0099 -0.004,0.02151 -0.0116,0.02999 -0.037,0.04092 -0.078,0.07691 -0.11889,0.111476 -0.34713,0.57856 -0.69109,1.155 -1.05304,1.71732 -0.23353,0.3623 -0.50729,0.72919 -0.92251,0.88794 -1.20509,0.46214 -2.3943,0.98637 -3.74403,0.86396 -1.07315,-0.0967 -1.96533,-0.47696 -2.6476,-1.34726 -0.27446,-0.35066 -0.42933,-0.74189 -0.61665,-1.12854 -0.0833,-0.1718 -0.22296,-0.3302 -0.44944,-0.2353 -0.18168,0.0765 -0.18309,0.25224 -0.14535,0.41593 0.21167,0.91757 0.58173,1.75542 1.39982,2.28635 1.28165,0.83114 2.64901,1.1684 4.15502,0.63112 0.32244,-0.11501 0.66922,-0.381 0.99907,-0.24518 0.44838,0.18485 0.7119,-0.0413 1.02023,-0.25824 1.52224,-1.07033 2.28812,-2.68993 3.10797,-4.27037 0.0469,-0.09031 0.0755,-0.212373 0.0265,-0.2921 m 0.0871,-3.27378 c -0.25753,-0.143578 -0.39652,0.107599 -0.50871,0.272699 -0.43956,0.646993 -0.87206,1.299633 -1.28164,1.966031 -0.21978,0.357717 -0.23636,0.771877 -0.17745,1.180745 0.0519,0.360188 0.266,0.511175 0.62971,0.439563 0.0593,-0.01199 0.11324,-0.04516 0.1718,-0.07197 0.0773,-0.0635 0.16793,-0.108657 0.23743,-0.183447 0.0734,-0.07867 0.13476,-0.171095 0.19473,-0.26035 0.0212,-0.03175 0.0434,-0.06315 0.0646,-0.09454 0.0275,-0.05257 0.0582,-0.103717 0.084,-0.156985 0.0416,-0.08608 0.0818,-0.172863 0.13511,-0.251884 0.008,-0.121356 0.0572,-0.250473 0.0843,-0.371475 0.14429,-0.630414 0.31468,-1.254831 0.47096,-1.882423 0.0522,-0.210256 0.12453,-0.45861 -0.10477,-0.585965 m -50.7164,13.637321 c 0.031,0.0448 0.0596,0.0917 0.0967,0.13264 0.11748,0.12912 0.28822,0.2473 0.46814,0.28611 0.13335,-0.87137 0.15805,-1.76601 0.0342,-2.69523 -0.19932,-1.49577 -0.30868,-3.00884 -0.59796,-4.48839 -0.44556,-2.278239 -0.97825,-4.53919 -1.48978,-6.804024 -0.44767,-1.9812 -0.76306,-3.972277 -0.71896,-6.015918 0.0169,-0.815272 0.12735,-1.61643 0.2226,-2.41794 0.23989,-2.026002 0.76341,-3.975452 1.76213,-5.775677 0.097,-0.175331 0.29069,-0.337256 0.17991,-0.565505 -0.12453,-0.09666 -0.22048,-0.04798 -0.30127,0.02787 -0.47554,0.446262 -0.87877,0.953558 -1.20756,1.514827 -0.84172,1.437216 -1.32538,3.001785 -1.68768,4.620331 -0.38524,1.721554 -0.39265,3.48121 -0.62583,5.217229 -0.0317,0.237421 -0.002,0.486481 0.0229,0.727429 0.085,0.830437 0.20108,1.658054 0.26528,2.489904 0.0702,0.897821 0.26812,1.762832 0.57856,2.6035 0.8128,2.204863 1.65276,4.400194 2.44263,6.613884 0.53764,1.50459 0.70803,3.01695 0.55598,4.52896 m 26.66612,-14.300909 c -0.26035,0.6985 -0.2286,1.350788 -0.34043,1.978732 -0.11324,0.635352 -0.11924,1.288343 -0.20602,1.929693 -0.26987,1.988964 -0.29034,2.004834 1.2693,3.279774 0.79763,0.65158 1.52329,1.36208 2.21544,2.12372 0.61842,0.68157 1.33209,1.27706 2.00413,1.911 -0.0318,-1.1617 0.0444,-2.27083 -0.23671,-3.35068 -0.39829,-1.52823 -0.97685,-2.967922 -1.95475,-4.231572 -0.91863,-1.18745 -1.81116,-2.39536 -2.75096,-3.640667 m 12.16484,3.336574 c -0.18027,0.06491 -0.31291,-0.06209 -0.40922,-0.191207 -0.27976,-0.374295 -0.46779,-0.792692 -0.53199,-1.257652 -0.17004,-1.230841 -0.70732,-2.318456 -1.3014,-3.386315 -0.27587,-0.496358 -0.59267,-0.978958 -0.7934,-1.50495 -0.27234,-0.714726 -0.76693,-1.081616 -1.48554,-1.218141 -1.04493,-0.198967 -2.02389,-0.537634 -2.90936,-1.164519 -1.18533,-0.83961 -2.04893,-1.906765 -2.58198,-3.253316 -0.22754,-0.575734 -0.47625,-1.143 -0.768,-1.839736 -0.56303,1.038225 -0.48366,2.065161 -0.66745,3.034946 -0.26177,1.378656 -0.4498,2.770013 -0.6029,4.165954 -0.066,0.600427 0.085,1.133475 0.4004,1.615369 0.50412,0.76835 1.03258,1.521177 1.57586,2.263423 1.37936,1.884892 2.62502,3.848804 3.33128,6.093529 0.42086,1.33879 0.73342,2.71004 0.80786,4.12468 0.0349,0.67345 0.10442,1.34584 0.17604,2.01683 0.0511,0.47484 0.33478,0.85478 0.58878,1.23331 1.02729,1.53317 1.89371,3.15207 2.64054,4.83623 0.16793,0.37924 0.4251,0.75318 0.25965,1.21073 -0.35772,0.0124 -0.40217,-0.27657 -0.52035,-0.46813 -0.70908,-1.15182 -1.41252,-2.30576 -2.32198,-3.31788 -0.25224,-0.28045 -0.50447,-0.54962 -0.85725,-0.76588 -0.2727,0.42863 -0.30868,0.89853 -0.38523,1.33033 -0.17639,0.9973 -0.56304,1.91876 -0.90312,2.85856 -0.0557,0.15063 -0.14075,0.29174 -0.22119,0.4318 -0.055,0.0956 -0.14181,0.18132 -0.25682,0.16051 -0.15628,-0.0282 -0.20496,-0.16122 -0.20814,-0.3048 -0.01,-0.46285 0.0811,-0.9137 0.15734,-1.36737 0.18662,-1.1183 0.30868,-2.24895 0.55069,-3.35456 0.14781,-0.67381 -0.0737,-1.10702 -0.58632,-1.45204 -0.85266,-0.57361 -1.71168,-1.1377 -2.57916,-1.6891 -0.79798,-0.50729 -1.60937,-0.99377 -2.41653,-1.48766 -0.11465,-0.0699 -0.23318,-0.13652 -0.35665,-0.18944 -0.46285,-0.19615 -0.56445,-0.16581 -0.69145,0.31962 -0.22472,0.86395 -0.47907,1.71626 -0.7747,2.56011 -0.3489,0.9973 -0.7179,1.99072 -1.24389,2.90124 -0.39265,0.6798 -0.44662,1.27776 -0.0797,1.97062 0.82867,1.56633 1.28129,3.26566 1.67781,4.98122 0.0854,0.36936 0.1464,0.74154 0.19826,1.11513 -0.001,0.007 -0.002,0.013 -0.004,0.0198 -0.12771,0.41699 -0.40393,0.83926 -0.84773,0.95956 -0.18203,0.0497 -0.36054,0.0215 -0.52634,-0.0462 -0.41169,-1.45874 -0.97649,-2.86879 -1.62807,-4.25204 -0.17251,-0.36653 -0.35137,-0.73095 -0.51788,-1.10066 -0.15452,-0.34255 -0.34184,-0.36689 -0.61207,-0.11007 -0.46919,0.44697 -0.93627,0.89323 -1.44427,1.30281 -0.95709,0.77258 -1.99919,1.37689 -3.13408,1.83303 -0.12488,0.0501 -0.25153,0.0981 -0.38171,0.12806 -0.10407,0.0243 -0.22683,0.0328 -0.30127,-0.0642 -0.10195,-0.13335 -0.0349,-0.25682 0.0646,-0.3563 0.38312,-0.38241 0.76553,-0.76588 1.15852,-1.13841 1.06292,-1.00683 2.00555,-2.12126 2.88396,-3.28754 0.51259,-0.68051 0.47026,-0.71332 -0.024,-1.4157 -0.83996,-1.1938 -1.62948,-2.42182 -2.50507,-3.59198 -1.15041,-1.53811 -2.37808,-3.00214 -3.71087,-4.38891 -2.1329,-2.21897 -4.30036,-4.412896 -6.22053,-6.823779 -1.60938,-2.020007 -2.84586,-4.259088 -3.75074,-6.689374 -0.93274,-2.505075 -1.3469,-5.10046 -1.61678,-7.744176 -0.34713,-3.401484 0.33162,-6.606469 1.65771,-9.709502 1.06433,-2.488497 2.59503,-4.661607 4.42277,-6.652332 1.88384,-2.051756 4.04566,-3.738033 6.47241,-5.078235 2.37737,-1.312688 4.88915,-2.2606 7.5999,-2.667355 0.90699,-0.135818 1.81504,-0.251528 2.72521,-0.351366 1.30104,-0.142875 2.4772,-0.739421 3.7412,-1.015646 0.29034,-0.0628 0.57962,-0.134763 0.87313,-0.176038 0.133,-0.01871 0.27799,0.03986 0.31186,0.198615 0.0261,0.122767 -0.0688,0.199319 -0.16758,0.243065 -0.32137,0.14111 -0.63923,0.29351 -0.97119,0.4064 -3.31752,1.130652 -6.27592,2.913592 -8.99054,5.090229 -2.84163,2.278946 -5.12199,5.04684 -6.64422,8.374946 -1.10349,2.412294 -1.71838,4.947708 -1.54129,7.632345 0.043,0.6477 0.09,1.292225 0.26494,1.921582 0.043,0.15381 0.0681,0.319617 0.0621,0.478718 -0.0155,0.380649 -0.24236,0.509411 -0.52211,0.275874 -0.39229,-0.32738 -0.76553,-0.672749 -0.98566,-1.164522 -0.52635,-1.177925 -0.58844,-2.418643 -0.47978,-3.664653 0.16051,-1.8415 0.67133,-3.606094 1.30245,-5.339644 0.67875,-1.863021 1.55117,-3.62444 2.6349,-5.284613 0.69638,-1.067858 1.50283,-2.041525 2.40171,-2.943225 0.10619,-0.106185 0.27482,-0.173567 0.28328,-0.429329 -1.43827,1.112309 -2.80952,2.227792 -4.08905,3.457575 -2.85714,2.746727 -5.17172,5.900209 -6.87705,9.466086 -1.06045,2.216853 -1.58608,4.609041 -1.40546,7.0866 0.10513,1.451326 0.39864,2.886778 0.8442,4.283778 1.1885,3.728863 3.3221,6.899275 5.836,9.837915 1.91382,2.236965 3.87491,4.433011 5.79014,6.669261 1.28341,1.4986 2.53189,3.02684 3.77437,4.5593 0.3556,0.43956 0.62936,0.94439 0.95074,1.41217 0.14569,0.21238 0.20955,0.58455 0.53234,0.53129 0.28046,-0.0469 0.33725,-0.39864 0.44309,-0.63712 0.41522,-0.94051 0.7627,-1.90641 1.05868,-2.89243 0.16263,-0.54433 0.30868,-1.08796 0.41099,-1.64888 0.0896,-0.49389 -0.0437,-0.80821 -0.44979,-1.10384 -1.02623,-0.74648 -2.05634,-1.48625 -2.97498,-2.37455 -1.41711,-1.370541 -2.51812,-2.952749 -3.42124,-4.696882 -1.43474,-2.769659 -2.18863,-5.748161 -2.76154,-8.783812 -0.0896,-0.474488 -0.0741,-0.97014 -0.0914,-1.456622 -0.0346,-0.997653 0.0469,-1.995662 -0.13476,-2.993318 -0.0903,-0.494594 -0.0801,-1.025173 0.0688,-1.53035 0.0935,-0.317852 0.0716,-0.645584 0.06,-0.968727 -0.085,-2.333625 0.48084,-4.564592 1.11689,-6.773685 0.7747,-2.688167 2.12232,-5.08 3.94441,-7.202665 1.23508,-1.439685 2.65148,-2.699457 4.00403,-4.022725 1.69581,-1.659115 3.69429,-2.900185 5.71006,-4.115858 0.0462,-0.02787 0.0928,-0.05927 0.14288,-0.0762 0.19685,-0.06703 0.43886,-0.234599 0.5775,0.01304 0.11782,0.209904 -0.13582,0.324204 -0.27799,0.429331 -0.50024,0.369358 -1.00789,0.728485 -1.51695,1.085498 -2.31563,1.624894 -4.32188,3.578225 -6.15985,5.720996 -1.50777,1.757539 -2.78377,3.670654 -3.73415,5.767212 -1.03188,2.276827 -1.69228,4.669013 -1.62278,7.214304 0.043,1.56845 -0.0399,3.14466 0.0713,4.707819 0.28434,4.001206 1.31339,7.769225 3.7338,11.06029 0.86395,1.17475 1.70392,2.368901 2.81482,3.334456 0.40816,0.354187 0.81773,0.706612 1.23542,1.05057 0.31292,0.258234 0.47414,0.204613 0.52988,-0.194733 0.11994,-0.854427 0.24412,-1.709912 0.3175,-2.569279 0.22507,-2.635956 0.46813,-5.271558 0.88688,-7.882821 0.2674,-1.6637 0.86324,-3.233208 1.91734,-4.588933 0.31045,-0.40005 0.4572,-0.839259 0.38735,-1.357487 -0.12276,-0.910167 -0.2353,-1.822098 -0.3175,-2.736498 -0.0586,-0.649465 0.0624,-1.292932 0.19403,-1.927577 0.0349,-0.167217 0.078,-0.419455 0.33514,-0.37183 0.17533,0.03246 0.20814,0.230717 0.2279,0.395113 0.073,0.61736 0.10583,1.242483 0.22048,1.851729 0.47696,2.531888 1.19804,4.984398 2.3234,7.316613 0.46708,0.968375 1.24319,1.46332 2.1791,1.803045 0.5835,0.212021 1.18428,0.377121 1.77377,0.574675 0.18486,0.06244 0.37148,0.122415 0.55316,0.05468 0.37465,-0.140052 0.5401,0.02045 0.65652,0.363008 0.47166,1.38924 1.20473,2.655006 1.86972,3.954992 0.65793,1.286581 0.93662,2.699808 1.23261,4.1021 0.0335,0.160514 0.0635,0.340783 -0.13406,0.41275 M 95.186201,93.536204 c -1.881013,1.618895 -2.683229,0.516818 -3.392665,0.430035 1.834092,1.733198 2.709334,0.310444 3.392665,-0.430035 m -3.1242,-0.591257 c 0,0.173215 0.149225,0.314325 0.332669,0.314325 0.183798,0 0.333023,-0.14111 0.333023,-0.314325 0,-0.173566 -0.149225,-0.313973 -0.333023,-0.313973 -0.183444,0 -0.332669,0.140407 -0.332669,0.313973 m 4.618919,-0.327376 c -0.627944,0.103716 -0.811742,0.423685 -0.942975,0.791985 -0.03916,0.110066 -0.08996,0.216958 -0.143582,0.321027 -0.76341,1.471789 -2.05105,1.885598 -3.547178,1.142296 -0.891824,-0.443442 -0.891824,-0.443442 -1.634774,-0.367596 -0.138641,-0.248002 0.01093,-0.461434 0.115007,-0.655812 0.533752,-1.005065 1.237543,-1.85773 2.296229,-2.343857 0.261763,-0.120298 0.572913,-0.378883 0.841729,0.0448 0.04163,0.06526 0.217662,0.06244 0.33161,0.0628 0.922515,0.0021 1.684867,0.435679 2.683934,1.004359 m -3.44805,5.512151 c -1.074915,0.05997 -2.000957,-0.463198 -3.09386,-0.779639 1.413226,1.623483 4.545187,2.066925 6.0706,-0.365829 -0.997305,0.551743 -1.892655,1.086202 -2.97674,1.145468 m -8.817682,-20.74016 c 0.136525,-0.817385 0.350663,-1.606195 0.84808,-2.289879 0.429683,-0.590904 0.989893,-0.999773 1.701445,-1.17475 0.251532,-0.06209 0.62089,-0.152048 0.729898,0.108654 0.251177,0.598665 0.584907,0.297746 0.913694,0.160163 0.188738,-0.07867 0.366183,-0.185915 0.54328,-0.28928 0.252941,-0.14746 0.430387,-0.113241 0.561268,0.170747 0.103365,0.224012 0.177094,0.514702 0.53199,0.45226 0.359479,-1.129242 0.636058,-1.311982 1.690862,-1.126419 0.0575,0.0099 0.113596,0.02999 0.17145,0.04022 0.613833,0.109712 1.220613,0.14887 1.81328,-0.119592 0.156633,-0.07056 0.33655,-0.107598 0.508703,-0.123825 0.529522,-0.05045 0.623007,0.08149 0.396172,0.575379 -0.164749,0.35913 -0.33514,0.705205 -0.08149,1.182513 0.209902,-0.243065 0.334433,-0.404638 0.476602,-0.548923 0.600781,-0.607835 1.156052,-0.675923 1.907116,-0.270582 0.511527,0.276225 0.781757,0.686507 0.814565,1.266122 0.0092,0.158043 0.0013,0.422627 0.269521,0.299508 0.412046,-0.188383 0.474133,0.117475 0.532696,0.355952 0.118533,0.48401 0.129468,0.984602 0.155575,1.483783 0.07867,1.493309 0.557387,2.76225 2.042225,3.421944 0.16863,0.07514 0.34502,0.20179 0.59267,0.01482 -0.27763,-0.239889 -0.52282,-0.442735 -0.75706,-0.657225 -0.929568,-0.848783 -1.209675,-1.909233 -0.995185,-3.121731 0.10301,-0.581729 0.368655,-1.032227 0.968025,-1.255535 0.39899,-0.148167 0.96978,-0.299154 0.88794,-0.813859 -0.0797,-0.500237 -0.69321,-0.46002 -1.10208,-0.556328 -0.45473,-0.106892 -0.982133,-0.05715 -1.337027,-0.377825 -0.661458,-0.597607 -1.502481,-0.758473 -2.288471,-1.042813 -0.336902,-0.122412 -0.615244,-0.332669 -0.945092,-0.452612 -0.131585,-0.04762 -0.3175,-0.151697 -0.250825,-0.306213 0.220134,-0.512234 -0.177093,-0.468487 -0.432503,-0.470604 -0.508707,-0.0028 -0.976138,0.17921 -1.409349,0.442383 -0.313618,0.1905 -0.676981,0.347837 -0.999066,0.154517 -0.89676,-0.537281 -1.723319,-0.181681 -2.510719,0.188029 -0.875596,0.410281 -1.779413,0.630766 -2.722033,0.555273 -2.464155,-0.196498 -4.091871,2.62396 -3.453342,4.861277 0.239887,-0.210609 0.186267,-0.488598 0.227187,-0.735542 m 27.686,2.078567 c 2.31705,-0.992717 4.6729,-1.47461 7.20619,-1.082323 1.36666,0.211666 2.75731,0.09596 4.08799,-0.369711 0.17004,-0.05997 0.4311,-0.04022 0.42827,-0.362656 -0.89535,-0.07761 -1.83091,0.261056 -2.76331,-0.22507 0.9077,-0.772936 1.90077,-1.227315 2.86103,-1.712384 0.96591,-0.488243 1.98438,-0.883356 3.00461,-1.251302 1.04846,-0.377825 2.13925,-0.609248 3.2385,-0.820914 1.04211,-0.200025 2.11561,-0.03669 3.23533,-0.242359 -0.18486,-0.254 -0.33126,-0.264583 -0.47343,-0.272343 -0.87454,-0.04622 -1.73955,-0.121005 -2.62573,-0.04868 -1.56033,0.128059 -3.07622,0.414512 -4.57482,0.855134 -1.70533,0.500943 -3.23885,1.375127 -4.81154,2.162527 -0.96237,0.481541 -1.94733,0.808214 -3.04059,0.734131 -0.46954,-0.0314 -0.9345,0.02752 -1.40088,0.110067 -1.63794,0.290687 -3.13019,0.98072 -4.63267,1.64888 -1.77412,0.788459 -3.56024,1.539172 -5.54602,1.601965 -0.26035,0.0081 -0.52,0.05786 -0.83503,0.293865 2.39007,0.297392 4.56353,-0.128765 6.6421,-1.018823 M 74.75684,91.091099 c -1.171222,-0.289983 -2.315633,-0.660752 -3.346097,-1.30457 -1.181453,-0.737658 -1.391003,-1.526823 -0.75812,-2.747788 0.284692,-0.550333 0.627239,-1.060095 1.089731,-1.480608 1.184628,-1.077029 2.561519,-1.833737 3.995561,-2.530121 1.023055,-0.496358 1.745897,0.164042 2.585861,0.419804 -0.06209,0.77329 0.395817,0.339021 0.686152,0.295981 0.140055,-0.02082 0.404638,-0.04833 0.34784,0.106186 -0.21731,0.587729 0.31256,0.403579 0.494593,0.588433 0.401463,0.407106 0.60043,0.127 0.864659,-0.102658 0.6731,-0.585611 1.081971,-1.383594 1.648531,-2.054929 0.243769,-0.288573 0.103362,-0.476605 -0.207433,-0.590198 -0.800807,-0.292452 -1.62419,-0.496007 -2.45745,-0.674865 -0.974373,-0.20955 -1.91135,-0.162277 -2.855384,0.167571 -2.070805,0.724252 -3.958166,1.776587 -5.661025,3.148894 -0.706966,0.569383 -1.352197,1.219552 -1.824213,2.011185 -0.866423,1.45274 -0.488598,2.896658 0.965905,3.759555 1.611842,0.956026 3.420181,1.122891 5.230283,1.311275 -0.231069,-0.216959 -0.519289,-0.253649 -0.799394,-0.323147 m 8.218663,-15.385343 c 0.596548,0.438504 0.67451,0.414515 1.00471,-0.299154 0.368655,-0.796573 0.940155,-1.401588 1.65735,-1.893358 0.3048,-0.208492 0.887238,-0.207788 0.886884,-0.604663 -2.65e-4,-0.415925 -0.567971,-0.52705 -0.883709,-0.771525 -1.279525,-0.992362 -2.500135,-2.03341 -3.318227,-3.46851 -0.724958,-1.271765 -1.064328,-2.658182 -1.262237,-4.090107 -0.04022,-0.289983 -0.02858,-0.589492 -0.156633,-0.861483 -0.180975,-0.384527 -0.473781,-0.441677 -0.753181,-0.130879 -0.134761,0.149929 -0.236009,0.335844 -0.329849,0.516819 -0.632176,1.222375 -0.933095,2.523773 -0.917926,4.460875 0.06279,2.689931 1.473551,5.232751 4.072818,7.141985 m 21.891277,-7.286625 c -0.47943,-0.737659 -0.98954,-1.455209 -1.66123,-2.037644 -0.26565,-0.23001 -0.54999,-0.5461 -0.91829,-0.396523 -0.44767,0.181682 -0.29139,0.65123 -0.30056,1.014942 -0.0152,0.625123 0.19544,1.212146 0.35701,1.805165 0.36477,1.335968 0.64488,2.683933 0.53728,4.078816 -0.11359,1.473907 -0.56833,2.756607 -2.01436,3.466042 -0.5274,0.25894 -0.72002,0.753885 -0.79022,1.295752 -0.170397,1.3081 0.55598,2.538235 1.76847,3.04659 0.50765,0.21237 0.98531,0.162628 1.41041,-0.167924 0.36971,-0.286808 0.72601,-0.597251 1.05057,-0.93345 1.41711,-1.463323 2.30717,-3.164416 2.31599,-5.250037 -0.004,-1.873604 -0.72426,-4.335288 -1.75507,-5.921729 m 0.0762,14.493168 c 1.56774,0.89535 2.79506,2.340682 4.60868,2.849388 0.26847,0.07549 0.50095,0.300212 0.73308,0.477309 0.11853,0.09066 0.34819,0.146753 0.19861,0.441325 -0.50094,0 -1.0287,-0.03034 -1.55222,0.0074 -0.65723,0.04727 -1.09643,0.444852 -1.25342,1.053745 -0.22084,0.85584 0.39088,2.269067 1.22731,2.808817 0.14711,-0.367594 -0.17215,-0.819854 0.21484,-1.19027 0.47625,0.414512 0.73978,1.108778 1.50284,1.095726 0.0141,-0.38241 -0.52811,-0.540101 -0.29775,-0.994126 0.54469,0.217662 1.04529,0.603953 1.7018,0.478366 -0.14181,-0.375356 -0.60042,-0.38735 -0.63641,-0.785283 0.37783,-0.109363 0.71191,0.283633 1.08232,0.105127 0.0621,-0.206023 -0.23247,-0.28081 -0.13476,-0.525992 0.47202,-0.15875 1.04352,0.09278 1.56916,-0.171802 -0.30127,-0.301273 -0.73237,-0.273404 -0.93027,-0.682979 0.25787,-0.155927 0.53198,-0.214487 0.8202,-0.237419 1.19098,-0.09419 2.35162,0.04269 3.4417,0.54751 0.90558,0.4191 1.80517,0.856192 2.67864,1.338088 0.76977,0.424037 1.52153,0.889704 2.2412,1.394177 0.86395,0.604308 0.86289,1.054807 0.0953,1.739194 -0.35348,0.314679 -0.73801,0.576088 -1.15746,0.795163 -2.54141,1.325033 -5.2638,1.790345 -8.09696,1.661583 -1.07209,-0.04833 -2.06269,-0.392996 -2.92488,-1.083733 -0.88335,-0.708025 -1.61184,-1.521884 -2.15124,-2.5273 -0.56127,-1.04634 -1.45485,-1.813984 -2.66065,-1.718734 -0.96449,0.07585 -1.94486,0.303387 -3.08292,0.500592 0.79269,0.370768 1.47249,0.304445 2.13324,0.31397 1.0541,0.01516 1.86267,0.420159 2.41794,1.334913 0.44274,0.728837 0.96697,1.401585 1.52154,2.049285 1.20508,1.408994 2.71109,2.215092 4.58681,2.270125 2.63737,0.07691 5.12727,-0.55245 7.50358,-1.643239 1.01389,-0.465667 1.96004,-1.063625 2.73156,-1.901119 0.82021,-0.889706 0.83044,-1.47461 -0.042,-2.339623 -1.32715,-1.31586 -2.92841,-2.256719 -4.53531,-3.167592 -2.29059,-1.29822 -4.8387,-1.76671 -7.4101,-2.0955 -1.58538,-0.202493 -3.14677,-0.422275 -4.38326,-1.582208 -0.16757,-0.157337 -0.38559,-0.270227 -0.59514,-0.374295 -0.38241,-0.190149 -0.76411,-0.396524 -1.23296,-0.457555 0.0353,0.119946 0.0342,0.198263 0.0674,0.216958 m 13.81831,49.165229 c -1.14794,-1.10984 -2.55835,-1.74272 -4.0513,-2.23097 -1.55822,-0.51047 -2.92841,-1.31022 -4.08693,-2.50331 -1.01635,-1.04704 -1.81892,-2.22109 -2.47438,-3.51084 -1.05022,-2.06552 -1.9611,-4.19877 -3.15278,-6.1969 -1.17792,-1.97308 -2.67406,-3.55529 -4.81083,-4.47463 -0.29704,-0.127 -0.583849,-0.27481 -0.828676,-0.49389 -0.619476,-0.55386 -0.62865,-0.95991 -0.02998,-1.53741 0.379942,-0.36618 0.781046,-0.71472 1.136296,-1.10419 1.2005,-1.31621 2.00872,-2.84692 2.41582,-4.59563 -0.33126,0.36336 -0.59231,0.77187 -0.85125,1.1818 -1.53564,2.42923 -3.562349,4.3501 -6.031089,5.80813 -0.209902,0.12418 -0.423333,0.33126 -0.702027,0.19227 -0.148166,-0.36231 0.271285,-0.66323 0.03422,-1.08726 -0.46355,0.69038 -0.885825,1.34902 -1.33844,1.98649 -0.826558,1.16346 -1.848908,2.1216 -3.087158,2.83986 -0.195437,0.11289 -0.493536,0.36971 -0.623359,0.19085 -0.377118,-0.5207 -0.594428,-0.0759 -0.825852,0.0878 -1.186039,0.83679 -2.440868,1.51695 -3.872089,1.8355 -0.170037,0.0378 -0.377825,0.0561 -0.519287,0.28293 1.024112,0.16581 1.925812,-0.0885 2.819045,-0.38205 2.16535,-0.71226 4.162425,-1.73638 5.966531,-3.14573 0.871715,-0.68191 1.858786,-1.131 3.022249,-0.9592 2.4003,0.3549 4.374796,1.45415 5.892446,3.35704 0.88371,1.10842 1.55822,2.34597 2.21227,3.59551 0.78952,1.50777 1.4866,3.06423 2.41794,4.49721 1.0601,1.63089 2.39183,2.96509 4.12362,3.87562 1.10172,0.5789 2.29976,0.87206 3.4932,1.18709 2.07116,0.5461 3.72992,1.6764 4.85987,3.52954 0.0889,0.1457 0.14287,0.32491 0.40463,0.43886 -0.15769,-0.9331 -0.69602,-1.87537 -1.51271,-2.66453 M 73.886184,115.40772 c -1.154288,0.33761 -1.518355,1.26224 -1.050925,2.40489 0.2413,0.58878 0.694267,0.79022 1.513417,0.80962 0.674158,0.0162 1.115836,-0.44415 1.621014,-0.70944 0.150283,0.11501 0.159808,0.23178 0.179917,0.34679 0.244122,1.4298 0.964847,2.11384 2.399594,2.23026 0.761648,0.0624 1.521532,0.03 2.275769,-0.13688 0.93204,-0.20673 1.584677,-0.69956 1.919465,-1.6196 0.373943,-1.02764 0.871008,-1.99002 1.698625,-2.74109 0.106185,-0.096 0.22225,-0.17991 0.349601,-0.28293 0.186974,0.23848 -0.03563,0.34008 -0.112889,0.44733 -0.524227,0.7306 -0.753179,1.58679 -1.045634,2.41441 -0.681212,1.9244 -2.259187,3.10233 -4.30318,3.22368 -1.913821,0.1136 -3.737329,-0.17357 -5.446185,-1.09537 -0.542925,-0.29246 -1.159227,-0.40958 -1.763536,-0.53622 -0.60325,-0.1263 -1.211791,-0.24166 -1.764947,-0.53199 -0.745419,-0.39159 -1.268589,-0.95145 -1.316214,-1.83904 -0.02928,-0.5408 -0.214136,-1.03046 -0.440266,-1.51094 -0.836437,-1.77659 -0.992012,-2.81235 0.870655,-4.73922 0.754239,-0.77999 1.529292,-1.54728 2.356556,-2.2479 1.793522,-1.52118 3.017661,-3.41489 3.865386,-5.58482 0.544688,-1.39595 1.192036,-2.74497 2.000955,-4.010736 0.142169,-0.22225 0.275519,-0.456845 0.454378,-0.646993 1.112661,-1.183569 1.143001,-2.578452 0.79128,-4.038952 -0.122767,-0.512233 -0.309033,-1.010357 -0.483305,-1.509183 -0.666397,-1.911705 -0.59055,-3.809297 0.115711,-5.68819 0.300567,-0.799394 0.668867,-1.570919 1.310923,-2.166057 1.166987,-1.08232 2.150886,-2.323745 3.132312,-3.569052 0.134409,-0.169685 0.234244,-0.397226 0.567267,-0.435326 -0.8255,1.379008 -1.77447,2.595737 -2.766835,3.781425 -0.778933,0.930978 -1.400175,1.936043 -1.74484,3.1242 -0.409222,1.408993 -0.32032,2.779535 0.06315,4.164541 0.352425,1.269294 0.83679,2.504721 0.916165,3.844571 0.05256,0.880533 -0.07691,1.692981 -0.603605,2.418646 -1.413932,1.947336 -2.359377,4.113036 -3.028949,6.415616 -0.274461,0.94368 -0.847725,1.73708 -1.486253,2.47403 -1.07703,1.24213 -2.208388,2.43064 -3.453341,3.50908 -0.28575,0.24765 -0.556684,0.53093 -0.767997,0.84244 -0.321028,0.47272 -0.208139,0.84243 0.324908,1.05057 0.659342,0.25823 1.359958,0.36794 2.067983,0.37888 0.502356,0.007 0.992011,0.0878 1.483783,0.16933 0.515409,0.0854 0.928159,0.34114 1.283406,0.71367 0.620183,0.64947 0.785989,1.40935 0.423686,1.99108 -0.483658,0.77611 -1.595614,1.19415 -2.377017,0.89994 -0.412044,-0.15522 -0.722136,-0.4057 -0.789163,-0.86149 -0.06879,-0.46672 0.155222,-0.78598 0.561975,-0.99624 0.07373,-0.0374 0.132291,-0.10442 0.197202,-0.15734"
       style="fill:#231f20;fill-opacity:1;fill-rule:nonzero;stroke:none;stroke-width:0.352777"
       id="path853" />
  </g>
</svg>
