<?xml version="1.0" encoding="UTF-8"?>
<svg xmlns="http://www.w3.org/2000/svg" width="100%" height="100%" viewBox="0 0 960.9 560.5">
  <defs>
    <filter id="blur" style="color-interpolation-filters:sRGB" x="-0.03359" width="1" y="-0.04" height="1.1">
      <feGaussianBlur stdDeviation="3.001"/>
    </filter>
  </defs>
  <rect style="fill:#fee3c8;stroke-width:5" width="956.9" height="512.1" x="0" y="0" rx="4.961"/>
  <rect style="fill:#9399af;stroke:#c21915;stroke-width:1" width="125" height="285.2" x="39.46" y="-430.9" rx="4.403" transform="matrix(0,1,-1,0,0,0)"/>
  <path id="body" fill="hsl(0,40%,26.500000000000377%)" stroke-width="1" d="m 405.7,101.9 c 0,-5.45 -1,-11.34 -4.7,-17.45 -4.7,-7.99 -6.2,-20.89 -14.2,-31.89 -3.3,-6.2 -6.7,-9.6 -11.4,-1.3 -4.7,4 -15.7,33.7 -15.7,33.7 0,0 -17.4,6.1 -27,2.2 -9.2,-4.31 -24.1,-17.8 -70.1,-7.01 -41.9,5.7 -33.8,7.01 -46.6,6.2 -12.7,-0.5 -29.8,3.3 -36.5,5.61 -6.8,1.69 -19.1,-1.7 -22.2,2.5 -3.4,4.1 -6.8,6.74 -2.1,8.04 4.9,1.4 6.6,-2.74 13.5,-0.6 6.7,2 9.7,1.4 14.1,0 4.8,-1.2 25.7,1.4 32.7,0.6 6.6,-0.6 11.3,-3.94 18.8,-3.94 7.4,0 47.7,5.34 47.7,5.34 0,0 -35.4,6.9 -42.4,6.9 -6.6,0 -19.7,-1.4 -30.2,-0.8 -10.9,0.8 -22.4,1.1 -27.2,1.1 -4.7,0 -2.7,-2.4 -8.6,-1.7 -6.2,0.6 -14.9,-6.1 -18.4,-0.7 -3.4,5.4 -0.9,10.9 6.6,10.9 7.5,0 17.1,0 21.8,0.4 4.7,0.7 27.6,6.1 32.4,6.1 4.7,0 10.8,-1.8 18.7,-1.8 8.4,0 46,4.7 60.9,5.3 24.3,1 31,-11 38.5,-11.4 7.4,-0.8 26.5,4.8 26.5,4.8 0,0 5.6,17 12.3,25.2 6.8,8 10.6,17.2 14.7,10.6 4.1,-6.8 8.1,-20.6 9.4,-31.4 3.4,-3.9 7.6,-13.4 8.5,-20.3 0.1,-1.7 0.2,-3.4 0.2,-5.2 z m -9,0.8 c 0,3.4 -0.7,7.2 -2.4,13.5 -1.3,3.1 -7.7,11.3 -9,16.5 -1.3,5.2 -4.3,12.7 -4.3,12.7 0,0 0,-6.2 -0.6,-9.4 -0.6,-3.3 0,-14.3 0.6,-22 0.7,-9 -1.2,-16.75 0,-25.84 -0.6,-7.71 -1.2,-18.1 -0.6,-21.4 0.6,-3.2 0.6,-9.4 0.6,-9.4 0,0 3,7.5 4.3,12.7 1.3,5.2 7.7,13.29 9,16.5 1.3,8 2.4,11.8 2.4,16.14 z"/>
  <path style="fill:#fee3c7" d="m 301.1,75.86 c 0,0 -1.3,19.39 -7.2,23.3 -5.8,3.94 -8.4,3.94 -8.4,3.94 0,0 8.1,2 12.3,8.1 4.2,6.1 4.2,19.4 4.2,19.4 0,0 16.5,-1.6 22.7,-5.9 6.2,-4.2 14.6,-6.7 18.5,-6.5 3.8,0.3 13.6,4.3 13.6,4.3 l 2.2,-5.8 c 0,0 -14.2,-2.7 -14.9,-11.6 -0.6,-9.15 17.2,-11.75 17.2,-11.75 l -4.6,-9.1 c 0,0 -14.5,2.91 -17.8,2.61 -3.2,-0.3 -17.1,-6.8 -20.7,-8.41 -3.5,-1.59 -18.4,-3.19 -18.4,-3.19 l 1.3,1.9 0,0"/>
  <path style="fill:#895d39" d="m 417.6,100.2 c 0.8,-3.75 -1.3,-7.85 -4.2,-10.75 -2.9,-2.89 -7.7,-4.8 -14.2,-3.89 -6.5,1 -9.7,5.19 -14.6,2.3 -4.8,-2.91 -8.7,-4.21 -12.3,-2.61 -3.6,1.61 -5.2,4.5 -11,2.61 -5.8,-2.01 -9.4,0.99 -9.1,4.2 0.3,3.19 3.3,5.8 1,7.8 -2.3,1.94 1.3,2.94 0,4.84 -1.3,2 1.9,4.2 0.6,6.2 -1.3,1.8 3,3.1 1.7,5.1 -1.3,2 -0.7,6.2 4.8,3.8 5.5,-2.1 7.5,-5.8 12.7,-3.8 5.1,2 7.4,2.2 13.6,0.3 6.1,-2 8.7,-2.3 16.5,-2.3 7.7,0 13.1,-7.3 14.5,-13.8 z"/>
  <path style="fill:#f49d9b;stroke:#c21915;stroke-width:1px" d="m 70.18,77.16 c -0.7,-7.7 9.7,-10 17.1,-8.4 7.5,1.6 12,-0.7 18.22,-1 6.1,-0.3 14.5,-1.3 18.4,5.8 3.9,7.19 -3.2,13.3 -8.4,13 -5.2,-0.31 -13.9,-3.61 -18.82,-3.61 -4.8,0 -25.8,1.9 -26.5,-5.79 z"/>
  <path style="fill:#cceaf9;stroke:#686868;stroke-width:1px" d="m 125,77.46 c 0,-1.2 -0.4,-2.5 -1.1,-3.9 -3.9,-7.1 -12.3,-6.1 -18.4,-5.8 -1.2,0.1 -2.3,0.2 -3.3,0.4 a 23.64,15.06 0 0 1 2.6,6.9 23.64,15.06 0 0 1 -4,8.39 c 4.8,0.9 10.8,2.9 14.7,3.11 4.2,0.2 9.7,-3.71 9.5,-9.1 z"/>
  <path style="fill:#cceaf9;stroke:#a9a9a9;stroke-width:1px" d="m 125,77.46 c 0,-1.2 -0.4,-2.5 -1.1,-3.9 -3.5,-6.3 -10.6,-6.2 -16.4,-5.9 a 14.9,13.28 0 0 1 3.5,8.5 14.9,13.28 0 0 1 -3.8,8.79 c 3.1,0.8 6,1.5 8.3,1.61 4.2,0.2 9.7,-3.71 9.5,-9.1 z"/>
  <path style="fill:#cceaf9;stroke:#898989;stroke-width:1px" d="m 125,77.46 c 0,-1.2 -0.4,-2.5 -1.1,-3.9 -2.2,-4 -5.9,-5.4 -9.7,-5.8 a 15.38,12.79 0 0 1 3.3,7.9 15.38,12.79 0 0 1 -6.3,10.29 c 1.6,0.3 3,0.5 4.3,0.61 4.2,0.2 9.7,-3.71 9.5,-9.1 z"/>
  <path d="m 70.18,100.3 c -0.7,7.7 9.7,10 17.1,8.4 7.5,-1.6 12,0.7 18.22,1 6.1,0.3 14.5,1.3 18.4,-5.8 3.9,-7.25 -3.2,-13.34 -8.4,-13.05 -5.2,0.3 -13.9,3.6 -18.82,3.6 -4.8,0 -25.8,-1.9 -26.5,5.85 z" style="fill:#f49d9b;stroke:#c21915;stroke-width:1px"/>
  <path d="m 125,99.96 c 0,1.24 -0.4,2.54 -1.1,3.94 -3.9,7.1 -12.3,6.1 -18.4,5.8 -1.2,-0.1 -2.3,-0.2 -3.3,-0.4 a 23.64,15.06 0 0 0 2.6,-6.9 23.64,15.06 0 0 0 -4,-8.45 c 4.8,-0.89 10.8,-2.89 14.7,-3.1 4.2,-0.2 9.7,3.71 9.5,9.11 z" style="fill:#cceaf9;stroke:#686868;stroke-width:1px"/>
  <path d="m 125,99.96 c 0,1.24 -0.4,2.54 -1.1,3.94 -3.5,6.3 -10.6,6.2 -16.4,5.9 a 14.9,13.28 0 0 0 3.5,-8.5 14.9,13.28 0 0 0 -3.8,-8.85 c 3.1,-0.8 6,-1.5 8.3,-1.6 4.2,-0.2 9.7,3.7 9.5,9.11 z" style="fill:#cceaf9;stroke:#a9a9a9;stroke-width:1px"/>
  <path d="m 125,99.96 c 0,1.24 -0.4,2.54 -1.1,3.94 -2.2,4 -5.9,5.4 -9.7,5.8 a 15.38,12.79 0 0 0 3.3,-7.9 15.38,12.79 0 0 0 -6.3,-10.35 c 1.6,-0.3 3,-0.5 4.3,-0.6 4.2,-0.2 9.7,3.71 9.5,9.11 z" style="fill:#cceaf9;stroke:#898989;stroke-width:1px"/>
  <path id="shadow" style="fill:#8c8376;fill-opacity:0.5;stroke-width:0.5;filter:url(#blur)" d="m 420,320 -107.2,0 -53.6,-92.8 53.6,-92.8 107.2,0 53.6,92.8 z" transform="translate(37.45000000000013,3.745000000000015)"/>
<g transform="matrix(0.8754,0.4834,-0.4834,0.8754,142.1,-150.7)">
  <path style="fill:#6aa8e7;stroke-width:0.5" d="m 453.1,423.2 56.6,98 -113.2,0 z" transform="matrix(0,1,-1,0,818.1,-216.3)"/>
  <path d="M 653.4,216.7 732.6,353.9 574.2,354 Z" style="fill:#f59d9b;stroke-width:0.5" transform="matrix(0.6185,0.3571,-0.3571,0.6185,68.78,-131)"/>
  <path transform="matrix(0.6185,-0.3571,0.3571,0.6185,-86.04,334.9)" style="fill:#6aa8e7;stroke-width:0.5" d="M 653.4,216.7 732.6,353.9 574.2,354 Z"/>
  <path d="m -606.3,-256.2 56.6,98 -113.2,0 z" style="fill:#f79ca1;stroke-width:0.5" transform="matrix(-1.27e-5,-1,1,-1.27e-5,651.1,-370.7)"/>
  <path transform="matrix(-0.6185,-0.3571,0.3571,-0.6185,721.2,603.4)" style="fill:#6aa8e7;stroke-width:0.5" d="M 653.4,216.7 732.6,353.9 574.2,354 Z"/>
  <path d="M 653.4,216.7 732.6,353.9 574.2,354 Z" style="fill:#f49aa0;stroke-width:0.5" transform="matrix(-0.6185,0.3571,-0.3571,-0.6185,876,136.9)"/>
</g>
  <path style="fill:#999; filter:url(#blur)" d="m 210,180.7 a 49.71,49.71 0 0 0 -49.7,-49.7 49.71,49.71 0 0 0 -49.7,49.7 49.71,49.71 0 0 0 49.7,49.6 49.71,49.71 0 0 0 49.7,-49.6 z m -22,0 a 27.66,27.66 0 0 1 -27.7,27.7 27.66,27.66 0 0 1 -27.7,-27.7 27.66,27.66 0 0 1 27.7,-27.7 27.66,27.66 0 0 1 27.7,27.7 z"/>
  <path style="fill:#6aa8e7;" d="m 213,180.7 a 49.71,49.71 0 0 0 -49.7,-49.7 49.71,49.71 0 0 0 -49.7,49.7 49.71,49.71 0 0 0 49.7,49.6 49.71,49.71 0 0 0 49.7,-49.6 z m -22,0 a 27.66,27.66 0 0 1 -27.7,27.7 27.66,27.66 0 0 1 -27.7,-27.7 27.66,27.66 0 0 1 27.7,-27.7 27.66,27.66 0 0 1 27.7,27.7 z"/>

  <path d="M 190.4 181 A 27.66 27.66 0 0 1 190.4 181.1 A 27.66 27.66 0 0 1 162.7 208.8 L 162.7 230.7 A 49.71 49.71 0 0 0 212.4 181.1 A 49.71 49.71 0 0 0 212.4 181 L 190.4 181 z " style="fill:#ececec"/>
  <path d="M 162.7 131.4 A 49.71 49.71 0 0 0 113 181 L 135 181 A 27.66 27.66 0 0 1 162.7 153.4 L 162.7 131.4 z " style="fill:#ececec;fill-opacity:1;stroke-width:0.5"/>

<g id="wave" style="fill:#91c0c6;fill-opacity:1;fill-rule:evenodd;stroke:#f4f4f4;stroke-width:3" transform="translate(0,20.249999999999986)">
  <path d="m -238.9,382.7 c 69,5.3 23.8,39.8 69,42.5 45.1,2.6 50.4,-39.8 84.96,-42.5 34.51,-2.7 37.16,55.7 55.75,47.8 18.57,-8 71.67,-95.6 114.14,-79.7 42.45,16 15.85,77 47.75,66.4 31.8,-10.6 34.5,-45.1 69,-37.2 34.5,8 116.8,53.1 153.9,13.3 37.2,-39.8 122.2,-21.2 151.3,0 29.2,21.3 85,-39.8 132.8,-15.9 47.7,23.9 127.4,29.2 151.3,8 23.9,-21.3 63.7,-13.3 106.1,-5.4 42.5,8 55.8,-34.5 102.9,-26.5 48,8 35,61.1 64,50.4 29,-10.6 37,-53.1 93,-42.4 56,10.6 125,50.4 143,18.5 19,-31.8 53,-37.1 53,-37.1 l 0,265.4 -1605.2,0 0,-217.6 z"/>
  <path d="m -238.9,433.1 c 69,5.3 23.8,39.8 69,42.5 45.1,2.6 50.4,-39.8 84.96,-42.5 34.51,-2.7 37.16,55.7 55.75,47.8 18.57,-8 71.67,-95.6 114.14,-79.7 42.45,16 15.85,77 47.75,66.4 31.8,-10.6 34.5,-45.1 69,-37.2 34.5,8 116.8,53.1 153.9,13.3 37.2,-39.8 122.2,-21.2 151.3,0 29.2,21.3 85,-39.8 132.8,-15.9 47.7,23.9 127.4,29.2 151.3,8 23.9,-21.3 63.7,-13.3 106.1,-5.4 42.5,8 55.8,-34.5 102.9,-26.5 48,8 35,61.1 64,50.4 29,-10.6 37,-53.1 93,-42.4 56,10.6 125,50.4 143,18.5 19,-31.8 53,-37.1 53,-37.1 l 0,265.4 -1605.2,0 0,-217.6 z"/>
  <path d="m -238.9,480.9 c 69,5.3 23.8,39.8 69,42.5 45.1,2.6 50.4,-39.8 84.96,-42.5 34.51,-2.7 37.16,55.7 55.75,47.8 18.57,-8 71.67,-95.6 114.14,-79.7 42.45,16 15.85,77 47.75,66.4 31.8,-10.6 34.5,-45.1 69,-37.2 34.5,8 116.8,53.1 153.9,13.3 37.2,-39.8 122.2,-21.2 151.3,0 29.2,21.3 85,-39.8 132.8,-15.9 47.7,23.9 127.4,29.2 151.3,8 23.9,-21.3 63.7,-13.3 106.1,-5.4 42.5,8 55.8,-34.5 102.9,-26.5 48,8 35,61.1 64,50.4 29,-10.6 37,-53.1 93,-42.4 56,10.6 125,50.4 143,18.5 19,-31.8 53,-37.1 53,-37.1 l 0,265.4 -1605.2,0 0,-217.6 z"/>
  <path d="m -238.9,536.6 c 69,5.3 23.8,39.8 69,42.5 45.1,2.6 50.4,-39.8 84.96,-42.5 34.51,-2.7 37.16,55.7 55.75,47.8 18.57,-8 71.67,-95.6 114.14,-79.7 42.45,16 15.85,77 47.75,66.4 31.8,-10.6 34.5,-45.1 69,-37.2 34.5,8 116.8,53.1 153.9,13.3 37.2,-39.8 122.2,-21.2 151.3,0 29.2,21.3 85,-39.8 132.8,-15.9 47.7,23.9 127.4,29.2 151.3,8 23.9,-21.3 63.7,-13.3 106.1,-5.4 42.5,8 55.8,-34.5 102.9,-26.5 48,8 35,61.1 64,50.4 29,-10.6 37,-53.1 93,-42.4 56,10.6 125,50.4 143,18.5 19,-31.8 53,-37.1 53,-37.1 l 0,265.4 -1605.2,0 0,-217.6 z"/>
</g>
  <path d="M -312.1 -5.209 C -314.7 -5.209 -316.8 -3.095 -316.8 -0.4688 L -316.8 759.4 C -316.8 762 -314.7 764.1 -312.1 764.1 L 1378 764.1 C 1381 764.1 1383 762 1383 759.4 L 1383 -0.4688 C 1383 -3.095 1381 -5.209 1378 -5.209 L -312.1 -5.209 z M 4.961 0 L 951.9 0 C 954.7 0 956.9 2.213 956.9 4.961 L 956.9 507.1 C 956.9 509.9 954.7 512.1 951.9 512.1 L 4.961 512.1 C 2.213 512.1 0 509.9 0 507.1 L 0 4.961 C 0 2.213 2.213 0 4.961 0 z " style="opacity:1;fill:#ffffff;fill-opacity:1;stroke:none;stroke-width:3;stroke-linecap:round;stroke-linejoin:miter;stroke-miterlimit:4;stroke-dasharray:none;stroke-dashoffset:0;stroke-opacity:1"/>

<script>
<![CDATA[
(function() { 
var x=0; var y=0;
var i=0; var p=0.15;
var repeater; 
var stepper = 0;
var c = 80;
function runshadow() {
	stepper = stepper + 1;
	if (x < 120 && y < 30) {
		x = x + 0.07;
		y = y + 0.007;
		i = i + p;
		c = c - 0.1;
		if (stepper % 200 == 0) {
			p = -p;
		}
		document.querySelector('#body').setAttribute('fill','hsl(0,40%,'+ c + '%)')
		document.querySelector('#shadow').setAttribute('transform','translate(' + x + ',' + y+ ')');
		document.querySelector('#wave').setAttribute('transform','translate(0,' + i + ')');
		repeater = requestAnimationFrame(runshadow);
	} 
}
runshadow();
    var test = true;
} () );
]]>
</script>
</svg>